<svg xmlns="http://www.w3.org/2000/svg" viewBox="0 0 347 528"><defs><style>.cls-1{fill:#bbd178;}.cls-2{fill:#e6e6e6;}.cls-3{fill:#f0f4d1;}.cls-4{fill:#6b1311;}.cls-5{fill:#fff;opacity:0.3;}</style></defs><g id="Layer_7" data-name="Layer 7"><path class="cls-1" d="M257.36,237a26.68,26.68,0,0,1,0,3c-.16,2.93-.65,3.64-1,4-.55.56-.78.31-2,1-.88.5-2.52,1.43-3,3-.14.48,0,.51,0,3v2c0,11.36-1,24-1,24-1.44,18.25-2.9,59.2-3,62-.34,9.49-1,27.3-1,49v16c0,11.67-.09,23.33,0,35,.12,16,.4,21.77,0,30-.58,11.89-2,17.17-1.7,19.65a4.16,4.16,0,0,1-.3,2.35,5.06,5.06,0,0,1-2,2c-2.59,1.76-2.77,2.23-4,3a50.24,50.24,0,0,1-16,6c-13.84,2.34-36.27,2.86-49,3h-1c-3.08,0-5.52,0-7,0-8,0-16.31,0-27-1,0,0-7.51-.67-22-4a33.54,33.54,0,0,1-6-2c-3.14-1.39-7.94-3.5-10-8-.44-1-.63-1.75-1-5a126.52,126.52,0,0,1-1-13c0-10.67,0-21.33,0-32V430c0-47.21,0-52.45,0-62-.13-33.71-.19-50.56-1-63-.22-3.42-3.21-48.68-2-54a5.69,5.69,0,0,0,0-3,9.34,9.34,0,0,0-3-4c-1.74-1.43-1.63-1.38-2-2-.92-1.51-.65-3-.5-5.5.06-1,0-2.68,0-6-.08-7-1.23-9.29.5-11.5.52-.67.67-.6,2-2a20.49,20.49,0,0,0,3-4c1.35-2.53.54-4,1-9a56.33,56.33,0,0,1,1-6c3.71-19.81,2.56-26.91,8-36,.34-.57.61-1,.73-1.18a35.76,35.76,0,0,1,14.77-13.32c.6-.28-.06.05,8.38-2.84,7.47-2.55,8-2.81,8.62-3.16a25.31,25.31,0,0,0,9-9,23.89,23.89,0,0,0,3-8,34.62,34.62,0,0,0,0-7,4,4,0,0,0-.81-2.8c-.18-.2-.39-.4-.69-.7l-.5-.5a5.68,5.68,0,0,1-.68-1,4.59,4.59,0,0,1-.32-3v-17c-.28-3.14.34-4.42,1-5a6.73,6.73,0,0,0,1-1,3.3,3.3,0,0,0,1-2,3.17,3.17,0,0,0-1-2c-.54-.62-.8-.59-1-1-.36-.73.16-1.44.5-2.5.62-1.91,0-2.93,0-7V71c0-.67,0-1.34,0-2,0-.2,0,0,0-2,0-3,0-3,0-3,.14-1.76.3-3.69,1.5-4.5a2.13,2.13,0,0,0,1-1,1.69,1.69,0,0,0,0-1c-.22-.94-.81-1.14-1-2a2.41,2.41,0,0,1,0-1,5.31,5.31,0,0,0,0-3c-.27-.86-.59-1-1-2a5.09,5.09,0,0,1-.5-3.5,5.61,5.61,0,0,1,3-3,9.75,9.75,0,0,1,5-1c5.33.32,10.67-.21,16,0,.34,0,.67,0,1,0,6.67.33,13.33,1.15,20,1,2.66-.06,6.67-.23,8,2,.79,1.34.71,3.68,0,4-.34.15-.71-.22-1,0s-.08.77,0,2v4a3.19,3.19,0,0,1,0,2c-.27.57-.66.4-1,1a2.17,2.17,0,0,0,0,2c.25.48.48.4,1,1a5,5,0,0,1,1,2,7,7,0,0,1,0,2c0,1,0,2,0,3v9c.12,2.83.44,3.25,0,4-.6,1-1.54.85-2,2a2.79,2.79,0,0,0,0,2c.49,1.09,1.55.94,2,2,.21.49.08.76,0,2v22c0,1.32.2,1.57,0,2a.8.8,0,0,1-.18.27,5.53,5.53,0,0,1-.82.73c-1.13.7-.5,4.5-.5,4.5a34,34,0,0,0,1.5,5.5s.69,1.87,1.5,3.5c3.09,6.19,9.32,10.64,9.32,10.64,3.72,2.66,5.68,2.54,10.18,4.86,6,3.11,12.06,6.22,17,12,5.8,6.79,7.64,14.37,9,20a76.28,76.28,0,0,1,2,16,178.87,178.87,0,0,0,1,18c.22,2.39.48,4.43,2,6,1,1,2,1.4,3,3a8,8,0,0,1,1,3c.46,2.82.13,4.32,0,8A64.16,64.16,0,0,0,257.36,237Z"/><path class="cls-2" d="M200.36,49c-.3.23-.08.77,0,2v4a3.19,3.19,0,0,1,0,2c-.27.57-.66.4-1,1a2.17,2.17,0,0,0,0,2c.25.48.48.4,1,1a5,5,0,0,1,1,2,7,7,0,0,1,0,2c0,1,0,2,0,3v9c.12,2.83.44,3.25,0,4-.6,1-1.54.85-2,2a2.79,2.79,0,0,0,0,2c.49,1.09,1.55.94,2,2,.21.49.08.76,0,2v22c0,1.32.2,1.57,0,2a.8.8,0,0,1-.18.27,5.53,5.53,0,0,1-.82.73h-52l-.5-.5a5.68,5.68,0,0,1-.68-1,4.59,4.59,0,0,1-.32-3v-17c-.28-3.14.34-4.42,1-5a6.73,6.73,0,0,0,1-1,3.3,3.3,0,0,0,1-2,3.17,3.17,0,0,0-1-2c-.54-.62-.8-.59-1-1-.36-.73.16-1.44.5-2.5.62-1.91,0-2.93,0-7V71c0-.67,0-1.34,0-2,0-.2,0,0,0-2,0-3,0-3,0-3,.14-1.76.3-3.69,1.5-4.5a2.13,2.13,0,0,0,1-1,1.69,1.69,0,0,0,0-1c-.22-.94-.81-1.14-1-2a2.41,2.41,0,0,1,0-1,5.31,5.31,0,0,0,0-3c-.27-.86-.59-1-1-2a5.09,5.09,0,0,1-.5-3.5,5.61,5.61,0,0,1,3-3,9.75,9.75,0,0,1,5-1c5.66.34,11.34-.28,17,0,6.67.33,13.33,1.15,20,1,2.66-.06,6.67-.23,8,2,.79,1.34.71,3.68,0,4C201,49.15,200.65,48.78,200.36,49Z"/><path class="cls-3" d="M169.3,150c-12.73,1.93-20,11.15-23,15-2.45,3.11-12.36,15.71-9,32a35.64,35.64,0,0,0,11,19c10.57,9.44,23.27,9.1,27,9,3-.09,23.29-.63,33-17,8-13.57,3-28.15,2-31a40.54,40.54,0,0,0-14-19C193.1,155.56,182.86,147.89,169.3,150Z"/><path class="cls-4" d="M173.35,161.65a24.68,24.68,0,0,0-9,3c-2.14,1.22-2.79,2-7,5-4.67,3.29-4.9,3-6,4-5.16,4.66-4.68,15.06-2,22a26.94,26.94,0,0,0,11,13c2.3,1.45,9.66,6.08,18,4,4-1,6.45-3.09,11-7,5.41-4.64,8.55-7.33,10-12,2.11-6.81-.83-13.24-3-18-1.51-3.31-2.86-6.25-6-9C183.43,160.61,174.62,161.5,173.35,161.65Z"/><path class="cls-2" d="M104.59,398c-.65.4-.1,1.85,0,5,0,.82,0,1.54,0,3,0,2.68-.12,2.7,0,3,.69,1.6,3.62,1.61,8,2,4.94.44,3.47.63,8,1,6.27.51,9.24.16,17,1h0c14.95,1.62,39.06-.39,60,0,2.19,0,5.86.14,11,0,6.58-.17,11.71-.62,16-1,9.23-.81,6.68-1,9-1,3,0,5.13.28,6-1,.35-.52.08-.68,0-4-.06-2.65-.09-4,0-5,.13-1.36.27-1.68,0-2-.73-.86-3,.21-6,1-.86.22-2.91.48-7,1-3.88.49-8.06.82-13,1-11.56.41-27.55,0-42,0-12,0-23.42.4-34,0-1.31-.05-7-.28-14-1-3.4-.35-5.77-.68-8-1a50.58,50.58,0,0,1-6-1c-1.27-.43-2.63-.54-3.92-.91C105.13,397.94,104.85,397.84,104.59,398Z"/><path class="cls-2" d="M102.59,285c-1.52,1-1.11,4.09-1,5,1.58,12.59.65,25.39,2,38,.45,4.18,0,1.74,0,41,0,18,.1,17.71,0,18-.23.73-1,2.75,0,4s2.93.92,6,1,2.55.44,8,1c15,1.54,30,2,30,2,23.1.71,40.83.34,56,0,35.3-.78,28.59-2.08,29-2,1.08.21,5.13,1.08,7-1,.52-.57.76-1.25,1-3a44.72,44.72,0,0,0,0-10v-7c0-9,.65-24.71,1-34s.9-24.46,1-34c.15-13.35-.59-12.71,0-14.73.19-.6.8-2.41,0-3.27s-2.5-.31-4,0h-30c-11.81,0-18.19.31-52,1-23.7.48-25.17.42-28,0-7.61-1.14-15.74.55-23-2C105.17,284.85,103.65,284.29,102.59,285Z"/><path class="cls-2" d="M101.59,266c-.72.67-.2,1.87,0,4,.44,4.61-1.24,7.13,0,8,.44.3.86.15,2,0h6c12.6,0,30,1,30,1,26.53,1.52,43.35.28,72,1,4,.1,8,0,12,0,5.35.05,10.67-1.25,16-1,1.12.05,3,.18,4-1,.64-.77.47-1.6,0-6-.4-3.86-.4-4.44-1-5-1.14-1.07-2.89-.53-6,0-4.34.74-8.22.83-16,1-2.06.05-3.47,0-5,0-5.23-.07-17.48-.05-42,0-22.42,0-24.22.19-34,0-12.47-.24-18.71-.37-23-1-4-.59-8.16.2-12-1C104,265.8,102.38,265.27,101.59,266Z"/><path class="cls-5" d="M172.36,42V505c-3.08,0-5.52,0-7,0-8,0-16.31,0-27-1,0,0-7.51-.67-22-4a33.54,33.54,0,0,1-6-2c-3.14-1.39-7.94-3.5-10-8-.44-1-.63-1.75-1-5a126.52,126.52,0,0,1-1-13c0-10.67,0-21.33,0-32V430c0-47.21,0-52.45,0-62-.13-33.71-.19-50.56-1-63-.22-3.42-3.21-48.68-2-54a5.69,5.69,0,0,0,0-3,9.34,9.34,0,0,0-3-4c-1.74-1.43-1.63-1.38-2-2-.92-1.51-.65-3-.5-5.5.06-1,0-2.68,0-6-.08-7-1.23-9.29.5-11.5.52-.67.67-.6,2-2a20.49,20.49,0,0,0,3-4c1.35-2.53.54-4,1-9a56.33,56.33,0,0,1,1-6c3.71-19.81,2.56-26.91,8-36,.34-.57.61-1,.73-1.18a35.76,35.76,0,0,1,14.77-13.32c.6-.28-.06.05,8.38-2.84,7.47-2.55,8-2.81,8.62-3.16a25.31,25.31,0,0,0,9-9,23.89,23.89,0,0,0,3-8,34.62,34.62,0,0,0,0-7,4,4,0,0,0-.81-2.8c-.18-.2-.39-.4-.69-.7l-.5-.5a5.68,5.68,0,0,1-.68-1,4.59,4.59,0,0,1-.32-3v-17c-.28-3.14.34-4.42,1-5a6.73,6.73,0,0,0,1-1,3.3,3.3,0,0,0,1-2,3.17,3.17,0,0,0-1-2c-.54-.62-.8-.59-1-1-.36-.73.16-1.44.5-2.5.62-1.91,0-2.93,0-7V71c0-.67,0-1.34,0-2,0-.2,0,0,0-2,0-3,0-3,0-3,.14-1.76.3-3.69,1.5-4.5a2.13,2.13,0,0,0,1-1,1.69,1.69,0,0,0,0-1c-.22-.94-.81-1.14-1-2a2.41,2.41,0,0,1,0-1,5.31,5.31,0,0,0,0-3c-.27-.86-.59-1-1-2a5.09,5.09,0,0,1-.5-3.5,5.61,5.61,0,0,1,3-3,9.75,9.75,0,0,1,5-1C161.69,42.32,167,41.79,172.36,42Z"/></g></svg>
