<svg xmlns="http://www.w3.org/2000/svg" viewBox="0 0 357 528"><defs><style>.cls-1{fill:#dbe2ec;}.cls-2{fill:#e6e6e6;}.cls-3{fill:#e4e4e6;}.cls-4{fill:#346189;}.cls-5{fill:#235184;}.cls-6{fill:#e13c30;}.cls-7{fill:#fff;opacity:0.3;}</style></defs><g id="Layer_7" data-name="Layer 7"><path class="cls-1" d="M242.35,478.71a49.76,49.76,0,0,1-1.88,6.57,25.38,25.38,0,0,1-2.82,6.57,18.68,18.68,0,0,1-4.69,4.7c-4.29,3.08-8.66,4-12.21,4.69-12.41,2.44-18.62,3.65-25.35,3.76H161.6c-6.74-.11-12.94-1.32-25.36-3.76-3.54-.69-7.92-1.61-12.2-4.69a19,19,0,0,1-4.7-4.7,25.41,25.41,0,0,1-2.81-6.57,48.28,48.28,0,0,1-1.88-6.57c-.7-3.63-.07-4,0-14.08,0-5,.06-7.55,0-8.46a20.42,20.42,0,0,1,0-4.69c.27-1.9.72-2.61.94-4.69a22.48,22.48,0,0,0,0-3.76c-.12-2.5,0-5,0-7.51V232.7c-.92-1.82-.94-1.87-.94-1.87-.34-1.09,0-1.7,0-3.76v-1.88c.12-.86.75-1,.94-1.87a4.88,4.88,0,0,0,0-.94,13.36,13.36,0,0,0,0-1.88c-.23-.87-.77-.94-.94-1.88a2.59,2.59,0,0,1,0-.94,42.31,42.31,0,0,0,0-5.63c0-2.19,0-4.39,0-6.57a22.66,22.66,0,0,1,0-2.82,15.72,15.72,0,0,1,1.88-5.64,34.06,34.06,0,0,1,2.81-4.69,49.78,49.78,0,0,1,3.76-4.69c2.2-2.5,4.37-5,6.57-7.52s1.73-2.11,8.45-10.32c5.67-6.94,6.07-7.29,7.51-9.39,2.88-4.19,4.52-6.59,5.64-10.33.32-1.07.83-3.53,1.88-8.45.91-4.31.49-2.74.93-4.7a27.17,27.17,0,0,0,.94-5.63V67.45l-.94-.94V58.06a2.69,2.69,0,0,1,0-.94c.19-.83.77-1,.94-1.88a8.43,8.43,0,0,0,0-.94c0-1.18,0-1.78,0-1.87.25-1.07,1.07-1.27.94-1.88-.09-.45-.55-.39-.94-.94a3.21,3.21,0,0,1,0-2.82c.33-.74.74-.95.94-1.88a1.46,1.46,0,0,0,0-.93c-.2-.51-.65-.52-.94-.94s-.09-.84,0-1.88c.15-1.63-.28-1.72,0-2.82a3.82,3.82,0,0,1,.94-1.88,4.48,4.48,0,0,1,1.88-.93c1.59-.56,2.39-.83,2.82-.94,1.79-.45,8.57-1,17.84-.94h.17c9.17,0,15.88.49,17.67.94.43.11,1.23.38,2.81.94a4.36,4.36,0,0,1,1.88.93,3.82,3.82,0,0,1,.94,1.88c.28,1.1-.15,1.19,0,2.82.1,1,.3,1.44,0,1.88s-.73.43-.94.94a1.54,1.54,0,0,0,0,.93c.21.93.61,1.14.94,1.88a3.14,3.14,0,0,1,0,2.82c-.38.55-.84.49-.94.94-.13.61.7.81.94,1.88,0,.09,0,.69,0,1.87a8.43,8.43,0,0,0,0,.94c.18.86.75,1,.94,1.88a2.47,2.47,0,0,1,0,.94v8.45l-.94.94V131.3a27.17,27.17,0,0,0,.94,5.63c.44,2,0,.39.94,4.7,1,4.92,1.56,7.38,1.88,8.45,1.11,3.74,2.76,6.14,5.63,10.33,1.45,2.1,1.84,2.45,7.51,9.39,6.73,8.21,6.25,7.82,8.45,10.32s4.38,5,6.58,7.52a48.36,48.36,0,0,1,3.75,4.69,34.6,34.6,0,0,1,2.82,4.69,16.12,16.12,0,0,1,1.88,5.64c.05.5,0,.51,0,2.82s0,4.38,0,6.57a40.69,40.69,0,0,0,0,5.63,3.16,3.16,0,0,1,0,.94c-.17.94-.72,1-.94,1.88a11.45,11.45,0,0,0,0,1.88,4.88,4.88,0,0,0,0,.94c.18.9.81,1,.94,1.87v1.88c0,2.06.33,2.67,0,3.76,0,0,0,0-.94,1.87V435.52c0,2.5.12,5,0,7.51a21.46,21.46,0,0,0,0,3.76c.21,2.08.66,2.79.94,4.69a20.42,20.42,0,0,1,0,4.69c-.06.91,0,3.42,0,8.46C242.41,474.74,243,475.08,242.35,478.71Z"/><path class="cls-2" d="M238.59,250.54q-.47,85.92-.94,171.83c-2.24.79-5.45,1.84-9.38,2.82A121.28,121.28,0,0,1,211.36,428c-3.12.34-7.27.73-12.2.94a26.34,26.34,0,0,1-6.57,5.63A26.66,26.66,0,0,1,186,437.4a26.07,26.07,0,0,1-4.69.84c-.55.05-1,.08-1.53.09h-.06l-1.23,0a38.81,38.81,0,0,1-7.51-.9A26.25,26.25,0,0,1,157.84,429c-4.93-.21-9.08-.6-12.2-.94a120.93,120.93,0,0,1-16.9-2.82c-3.94-1-7.15-2-9.39-2.82q-.46-85.9-.94-171.83Z"/><path class="cls-3" d="M181.32,438.24v.09h-1.53C180.27,438.32,180.77,438.29,181.32,438.24Z"/><path class="cls-3" d="M179.73,438.33H178.5v0Z"/><path class="cls-4" d="M237.65,419.71h0c0,1.23.13,1.6-.93,2a87.27,87.27,0,0,1-11.27,4.06,95.65,95.65,0,0,1-12.21,2c-3.28.39-7.41.78-12.22,1a2.54,2.54,0,0,0-1.6.64,46.4,46.4,0,0,1-5.9,4.47,31.58,31.58,0,0,1-5.63,3.05,26.44,26.44,0,0,1-9.39,2h-.94a26.44,26.44,0,0,1-9.39-2,31.94,31.94,0,0,1-5.63-3.05,46.4,46.4,0,0,1-5.9-4.47,2.54,2.54,0,0,0-1.6-.64c-4.81-.2-8.94-.59-12.22-1a95.65,95.65,0,0,1-12.21-2,78.88,78.88,0,0,1-10.43-3.33c-1.07-.43-.83-1.53-.83-2.76h0a46.09,46.09,0,0,0,7.51,3.05,106.27,106.27,0,0,0,15,3,90.94,90.94,0,0,0,11.27,1c1,0,1.83,0,2.58,0a2.56,2.56,0,0,1,2,.89c.56.63,1.25,1.36,2,2.14a26,26,0,0,0,6.57,5.08,22.35,22.35,0,0,0,5.64,2c.26.08-.27-.07,0,0l1,.28a21.32,21.32,0,0,0,5.55.74h.06a12.83,12.83,0,0,0,3.48-.44c.92-.24,1.92-.51,2.09-.58a53,53,0,0,0,8.46-4.06,17.7,17.7,0,0,0,3.75-3.05c.8-.78,1.48-1.51,2-2.14a2.56,2.56,0,0,1,2-.89c.74,0,1.61,0,2.57,0a90.94,90.94,0,0,0,11.27-1,106,106,0,0,0,15-3Z"/><path class="cls-4" d="M237.65,392v22.54a.43.43,0,0,1-.25.41,55.56,55.56,0,0,1-10.07,3.64c-3.29.83-6.29,1.27-14.09,1.87-7.25.56-12.72.8-16,.94-4.23.19-10.48.48-18.27.87l-.51,0-.69,0c-7.7-.38-13.89-.67-18.09-.86-3.24-.14-8.71-.38-16-.94-7.8-.6-10.8-1-14.08-1.87a55,55,0,0,1-10-3.59.63.63,0,0,1-.36-.58V392.28a.65.65,0,0,1,.84-.62,130.53,130.53,0,0,0,13.24,3.48c8.12,1.7,14.27,2.15,23.48,2.82,5.61.4,12.91.81,21.5.92,8.67-.11,16-.52,21.69-.92,9.2-.67,15.35-1.12,23.47-2.82a132.22,132.22,0,0,0,13.48-3.56A.46.46,0,0,1,237.65,392Z"/><path class="cls-5" d="M178.07,422.3a.72.72,0,0,1-.25,0h-.26Z"/><path class="cls-5" d="M177.56,422.33h-.45a.37.37,0,0,1-.24,0Z"/><path class="cls-4" d="M119.35,385.89c5.88,1.41,10.73,2.32,14.08,2.9,2.48.42,6.35,1,22.54,2.89,7.91.91,11.86,1.36,13.14,1.45a180.6,180.6,0,0,0,23.48,0,160.84,160.84,0,0,0,16.9-1.45,136.64,136.64,0,0,0,19.71-4.34c3.43-1,6.31-2.08,8.45-2.89V383c-.81.34-2.12.88-3.75,1.45a96.31,96.31,0,0,1-11.27,2.89l-6.57,1.45c-13.44,2.73-27.12,2.86-31.93,2.89-1.19,0-5.26,0-10.6-.21-3.37-.15-7-.39-15.69-1.24-11.79-1.15-17.68-1.74-24.41-2.89-5.9-1-10.75-2.09-14.08-2.89Z"/><path class="cls-4" d="M119.35,257.12h118.3v-1.88H119.35Z"/><path class="cls-2" d="M203.08,58.2v8.45l-.94.94v46.55H155.19V67.59l-.94-.94V58.2a2.69,2.69,0,0,1,0-.94c.19-.83.77-1,.94-1.88a8.43,8.43,0,0,0,0-.94c0-1.18,0-1.78,0-1.87.25-1.07,1.07-1.27.94-1.88-.09-.45-.55-.39-.94-.94a3.21,3.21,0,0,1,0-2.82c.33-.74.74-1,.94-1.88a1.46,1.46,0,0,0,0-.93c-.2-.51-.65-.52-.94-.94s-.09-.84,0-1.88c.15-1.63-.28-1.72,0-2.82a3.82,3.82,0,0,1,.94-1.88,4.48,4.48,0,0,1,1.88-.93c1.59-.56,2.39-.83,2.82-.94,1.79-.45,8.57-1,17.84-.94s16,.49,17.84.94c.43.11,1.23.38,2.81.94a4.36,4.36,0,0,1,1.88.93,3.82,3.82,0,0,1,.94,1.88c.28,1.1-.15,1.19,0,2.82.1,1,.3,1.44,0,1.88s-.73.43-.94.94a1.54,1.54,0,0,0,0,.93c.21.93.61,1.14.94,1.88a3.14,3.14,0,0,1,0,2.82c-.38.55-.84.49-.94.94-.13.61.7.81.94,1.88,0,.09,0,.69,0,1.87a8.43,8.43,0,0,0,0,.94c.18.86.75,1,.94,1.88A2.47,2.47,0,0,1,203.08,58.2Z"/><path class="cls-4" d="M202,39.22a62.43,62.43,0,0,0-10.32-2.82,61.75,61.75,0,0,0-13.15-.94,61.7,61.7,0,0,0-13.14.94A62.56,62.56,0,0,0,155,39.22a5,5,0,0,1,.94-3.76c.73-.89,1.75-1.23,3.75-1.87a27.24,27.24,0,0,1,3.76-.94,66.25,66.25,0,0,1,8.45-.94c1.69-.08,3.92-.12,6.57,0,2.65-.12,4.88-.08,6.57,0a66.25,66.25,0,0,1,8.45.94,27.24,27.24,0,0,1,3.76.94c2,.64,3,1,3.76,1.87A5,5,0,0,1,202,39.22Z"/><path class="cls-6" d="M202,113.4v11.26a5.68,5.68,0,0,1-.05,1.88,15,15,0,0,0-2-.94,15.57,15.57,0,0,0-5-.94c-4.33-.16-8.43,0-10,0s-3.78.07-6.48,0-4.92,0-6.48,0-5.63-.16-10,0a15.57,15.57,0,0,0-5,.94,15,15,0,0,0-2,.94,6,6,0,0,1-.05-1.88V113.4c0-.86,0-2.15,0-3.76a80.82,80.82,0,0,1,13-1.88,96.15,96.15,0,0,1,10.46,0,96.15,96.15,0,0,1,10.46,0,80.82,80.82,0,0,1,13,1.88C202,111.25,202,112.54,202,113.4Z"/><path class="cls-6" d="M155,105.89c1.93-.28,4.55-.62,7.66-.94,2.73-.29,7-.73,12.46-.94a119.38,119.38,0,0,1,12.45,0A100.89,100.89,0,0,1,202,105.89V104a82.29,82.29,0,0,0-12.45-1.88c-3.06-.23-6.51-.15-13.41,0a128.33,128.33,0,0,0-15.33.94c-2.42.32-4.41.68-5.75.94Z"/><path class="cls-7" d="M178.67,33.65V505H161.6c-6.74-.11-12.94-1.32-25.36-3.76-3.54-.69-7.92-1.61-12.2-4.69a19,19,0,0,1-4.7-4.7,25.41,25.41,0,0,1-2.81-6.57,48.28,48.28,0,0,1-1.88-6.57c-.7-3.63-.07-4,0-14.08,0-5,.06-7.55,0-8.46a20.42,20.42,0,0,1,0-4.69c.27-1.9.72-2.61.94-4.69a22.48,22.48,0,0,0,0-3.76c-.12-2.5,0-5,0-7.51V232.7c-.92-1.82-.94-1.87-.94-1.87-.34-1.09,0-1.7,0-3.76v-1.88c.12-.86.75-1,.94-1.87a4.88,4.88,0,0,0,0-.94,13.36,13.36,0,0,0,0-1.88c-.23-.87-.77-.94-.94-1.88a2.59,2.59,0,0,1,0-.94,42.31,42.31,0,0,0,0-5.63c0-2.19,0-4.39,0-6.57a22.66,22.66,0,0,1,0-2.82,15.72,15.72,0,0,1,1.88-5.64,34.06,34.06,0,0,1,2.81-4.69,49.78,49.78,0,0,1,3.76-4.69c2.2-2.5,4.37-5,6.57-7.52s1.73-2.11,8.45-10.32c5.67-6.94,6.07-7.29,7.51-9.39,2.88-4.19,4.52-6.59,5.64-10.33.32-1.07.83-3.53,1.88-8.45.91-4.31.49-2.74.93-4.7a27.17,27.17,0,0,0,.94-5.63V67.45l-.94-.94V58.06a2.69,2.69,0,0,1,0-.94c.19-.83.77-1,.94-1.88a8.43,8.43,0,0,0,0-.94c0-1.18,0-1.78,0-1.87.25-1.07,1.07-1.27.94-1.88-.09-.45-.55-.39-.94-.94a3.21,3.21,0,0,1,0-2.82c.33-.74.74-.95.94-1.88a1.46,1.46,0,0,0,0-.93c-.2-.51-.65-.52-.94-.94s-.09-.84,0-1.88c.15-1.63-.28-1.72,0-2.82a3.82,3.82,0,0,1,.94-1.88,4.48,4.48,0,0,1,1.88-.93c1.59-.56,2.39-.83,2.82-.94,1.79-.45,8.57-1,17.84-.94Z"/></g></svg>
