<svg xmlns="http://www.w3.org/2000/svg" viewBox="0 0 363 528"><defs><style>.cls-1{fill:#ddd8d4;}.cls-2{fill:#6b1311;}.cls-3{fill:#e6e6e6;}.cls-4{fill:#fff;opacity:0.3;}</style></defs><g id="Layer_7" data-name="Layer 7"><path class="cls-1" d="M209.51,77.26l-1,.26V77Z"/><path class="cls-1" d="M265.46,489c-.12,1.31-.45,5.19-3,8a11.18,11.18,0,0,1-5,3,62.49,62.49,0,0,1-18,3c-7.7.35-2.31.36-15,1,0,0-19.85,1-37,1H175.54c-17.15,0-37-1-37-1-12.7-.64-7.29-.65-15-1a62.44,62.44,0,0,1-18-3,11.08,11.08,0,0,1-5-3c-2.54-2.81-2.9-6.69-3-8a15.23,15.23,0,0,1,0-3c.67-7.64.36-15.35,1-23,.88-10.87,1-34.77,1-62,0-31.64,0-42.82,0-85,0-64.76.08-63.71,0-65-.39-6,.4-12,0-18-.3-4.24-.71-7,1-10,1.23-2.16,3.51-3.8,8-7,3.21-2.29,5.71-3.82,6-4,6.45-4,11-9.71,20-21,2.27-2.89,5.41-7,9-12a11,11,0,0,1,0-4c.51-2.72,2-4.51,4-7a36.37,36.37,0,0,1,5-5,13,13,0,0,1,0-3,13.82,13.82,0,0,1,1-4,58.24,58.24,0,0,1-1-9c-.17-4.28-.41-10.54,2-17,1.72-4.64,2.6-3.46,6-10a55.45,55.45,0,0,0,6-19c.07-.68.12-1.35.15-2a48.53,48.53,0,0,0-.15-8l13.92-3.48,1-.25h0l1,.26L196.46,91a47.26,47.26,0,0,0-.18,7.47h0q0,1.22.18,2.52a54.49,54.49,0,0,0,6,19c3.4,6.54,4.29,5.36,6,10,2.41,6.46,2.16,12.72,2,17a60.85,60.85,0,0,1-1,9,13.82,13.82,0,0,1,1,4,13.59,13.59,0,0,1,0,3,37,37,0,0,1,5,5c2.06,2.49,3.49,4.28,4,7a10.8,10.8,0,0,1,0,4c3.59,5,6.71,9.11,9,12,8.95,11.29,13.56,17,20,21,.29.18,2.79,1.71,6,4,4.49,3.2,6.77,4.84,8,7,1.7,3,1.3,5.76,1,10-.4,6,.38,12,0,18-.08,1.29,0,.24,0,65,0,42.18,0,53.36,0,85,.05,27.23.11,51.13,1,62,.63,7.65.33,15.36,1,23A14.43,14.43,0,0,1,265.46,489Z"/><path class="cls-1" d="M210.54,77v.52l-1-.26Z"/><path class="cls-2" d="M218.46,81a19.5,19.5,0,0,1-6,12c-2.38,2.18-12.63,5-15.47,5.84a.65.65,0,0,1-.71-.36h0C194.46,96,193.43,95,190.46,95h-9c-6.87,0-9,0-13,2a3.21,3.21,0,0,0-1.77,2c-.15.34-.36.43-1.23,0-1-.67-11-3.33-12-4a26.47,26.47,0,0,1-8-12,25.38,25.38,0,0,1-1-5,35.14,35.14,0,0,1,11-3,34.65,34.65,0,0,1,7,0,139.87,139.87,0,0,1,9-18c1.35-2.26,2.95-4.76,6-6a10.33,10.33,0,0,1,4-.71,13.1,13.1,0,0,1,4,.71c5.38,1.8,8.06,6.64,11,12a51.79,51.79,0,0,1,5,13,63.66,63.66,0,0,1,7,1.46l.12,0c1.57.42,3.22.92,4.88,1.51S216.91,80.31,218.46,81Z"/><path class="cls-3" d="M251.46,260q-.47,21.5-1,43-1.68,67.51-4,135c-15,1.62-31.06,2.7-48,3q-8.15.13-16,0-7.83.1-16,0c-16.93-.3-33-1.38-48-3q-2.33-67.49-4-135-.52-21.51-1-43a23.5,23.5,0,0,0,14-1c4.09-1.73,6-4.19,9-7,7.41-6.9,15.16-10,20-12a59.3,59.3,0,0,1,26-4,59.24,59.24,0,0,1,26,4c4.85,2,12.6,5.1,20,12,3,2.81,4.92,5.27,9,7A23.5,23.5,0,0,0,251.46,260Z"/><path class="cls-2" d="M205.28,412c-9.24.32-16.79.3-23.82.18-2.73-.05-5.39-.12-8-.18-13.28-.33-30.95-1.1-52-3v23c15.69,1.6,32.71,2.71,50.92,3,3.06.05,6.1.08,9.08.08A597.5,597.5,0,0,0,242.4,432q.54-11.5,1.06-23C233.86,410.18,220.81,411.45,205.28,412Zm33.95,18c-5.46.59-13.54,1.38-23.35,2-13,.82-24.65,1.08-34.42,1.06-15.93,0-26.82-.8-30.3-1.06-6.78-.51-16.25-1.39-27.58-3V412c21.25,2.12,38.93,2.81,52,3l5.9.06c5.78,0,9.85,0,11.09-.06,19.26-.32,35.22-1.71,46.68-3Z"/><path class="cls-2" d="M241.46,267V392c-5.72.8-11.73,1.48-18,2a318.21,318.21,0,0,1-33,1c-1.72,0-2.55.22-4.76.09-.94,0-1.89-.09-2.83-.09H172.46a318.37,318.37,0,0,1-33-1c-6.26-.52-12.27-1.2-18-2V267a33.12,33.12,0,0,0,12-2c5.46-2,6.66-4.2,14-9,4.6-3,10.43-6.76,18-9a49.21,49.21,0,0,1,12-2c.6,0,1.17,0,1.7,0l1.3,0c4.66.09,12.15.55,17,2,7.58,2.24,13.41,6,18,9,7.35,4.8,8.55,7,14,9A33.18,33.18,0,0,0,241.46,267Z"/><path class="cls-4" d="M181.46,50.29V505h-5.92c-17.15,0-37-1-37-1-12.7-.64-7.29-.65-15-1a62.44,62.44,0,0,1-18-3,11.08,11.08,0,0,1-5-3c-2.54-2.81-2.9-6.69-3-8a15.23,15.23,0,0,1,0-3c.67-7.64.36-15.35,1-23,.88-10.87,1-34.77,1-62,0-31.64,0-42.82,0-85,0-64.76.08-63.71,0-65-.39-6,.4-12,0-18-.3-4.24-.71-7,1-10,1.23-2.16,3.51-3.8,8-7,3.21-2.29,5.71-3.82,6-4,6.45-4,11-9.71,20-21,2.27-2.89,5.41-7,9-12a11,11,0,0,1,0-4c.51-2.72,2-4.51,4-7a36.37,36.37,0,0,1,5-5,13,13,0,0,1,0-3,13.82,13.82,0,0,1,1-4,58.24,58.24,0,0,1-1-9c-.17-4.28-.41-10.54,2-17,1.72-4.64,2.6-3.46,6-10a55.45,55.45,0,0,0,6-19c.07-.68.12-1.35.15-2-.15.34-.36.43-1.23,0-1-.67-11-3.33-12-4a26.47,26.47,0,0,1-8-12,25.38,25.38,0,0,1-1-5,35.14,35.14,0,0,1,11-3,34.65,34.65,0,0,1,7,0,139.87,139.87,0,0,1,9-18c1.35-2.26,2.95-4.76,6-6A10.33,10.33,0,0,1,181.46,50.29Z"/></g></svg>
