<svg xmlns="http://www.w3.org/2000/svg" width="4.42cm" height="6.09cm" viewBox="0 0 125.41 172.53"><defs><style>.cls-1{fill:#f2f2f2;}.cls-2{fill:none;stroke:#e6e6e6;stroke-linecap:round;}.cls-2,.cls-3{stroke-miterlimit:10;stroke-width:3px;}.cls-3{fill:#f0f4d1;stroke:#bbd178;}.cls-4{fill:#bbd178;}.cls-5{fill:#5e771c;}</style></defs><title>testdrink</title><g id="gin_tonic" data-name="gin tonic"><path class="cls-1" d="M63.21,171c-110-5-43-147-43-147h85s67,142-43,147"/><path class="cls-2" d="M24.21,14s-71,152,39,157h-1c110-5,39-157,39-157"/><circle class="cls-3" cx="32.94" cy="116.03" r="26.5"/><path class="cls-4" d="M22.77,124.57s10.37-2.26,9.48,1.69S22.77,124.57,22.77,124.57Z"/><path class="cls-4" d="M32.11,120.29c1,3.93-9.22,2.76-9.22,2.76s8.25-6.68,9.22-2.76"/><path class="cls-4" d="M42.51,122.89s-10.54,1.36-9.3-2.49S42.51,122.89,42.51,122.89Z"/><path class="cls-4" d="M33.11,126.34c-.64-4,9.42-2,9.42-2s-8.79,6-9.42,2"/><path class="cls-4" d="M44.41,121.25s-7.15-7.85-3.28-9S44.41,121.25,44.41,121.25Z"/><path class="cls-4" d="M36,115.3c2.92-2.81,7,6.61,7,6.61s-9.91-3.8-7-6.61"/><path class="cls-4" d="M33.08,105s6.45,8.44,2.49,9.3S33.08,105,33.08,105Z"/><path class="cls-4" d="M40.77,111.41c-3.14,2.55-6.41-7.18-6.41-7.18s9.56,4.64,6.41,7.18"/><path class="cls-4" d="M30.71,104.1s-3.23,10.12-6.2,7.37S30.71,104.1,30.71,104.1Z"/><path class="cls-4" d="M29.74,114.33C25.86,113.21,32,105,32,105s1.66,10.48-2.23,9.36"/><path class="cls-4" d="M22.3,122s4.09-9.81,6.81-6.81S22.3,122,22.3,122Z"/><path class="cls-4" d="M24,112.17c3.78,1.45-3,9.14-3,9.14s-.76-10.59,3-9.14"/><path class="cls-5" d="M83.15,37.57c-.16-2.9-.82-6.36-1-9.25A31.22,31.22,0,0,0,81,20a20.75,20.75,0,0,0-6.36-8.91A30.87,30.87,0,0,0,62.54,4.69l8.05,10.48a77.6,77.6,0,0,1,5.27,7.45c3.71,6.28,5.45,14.13,6.93,21.27"/><path class="cls-5" d="M83.52,37.57c-.23-3.71-.82-7.4-1.08-11.12a21.48,21.48,0,0,0-3-10.46C75.67,10.16,69.23,6.17,62.64,4.33c-.28-.08-.63.28-.42.55l7.45,9.7A72.77,72.77,0,0,1,76,23.71C79.48,30,81,37.07,82.43,44c.09.47.82.27.72-.2-1.42-6.85-2.93-13.87-6.26-20.09a69.67,69.67,0,0,0-6.42-9.31L62.87,4.5l-.43.55C69,6.87,75.4,10.86,79,16.72c2,3.27,2.53,6.9,2.76,10.66.2,3.42.81,6.78,1,10.19,0,.48.78.49.75,0Z"/><path class="cls-5" d="M85.37,32c1.65-2.3.68-4.48.85-7.31a47.71,47.71,0,0,0-.16-5.07A44.41,44.41,0,0,1,87.83,4.81,8.49,8.49,0,0,1,89.3,1.65,3.33,3.33,0,0,1,92.4.4c-4.29,8.72-6.22,20-6.29,29.74"/><path class="cls-5" d="M85.69,32.19c1.32-2,1-4,.89-6.27,0-1.41.06-2.81,0-4.23s-.19-2.94-.18-4.41a43.66,43.66,0,0,1,1-9c.52-2.5,1.35-8,5-7.55L92.08.21C87.59,9.42,85.83,20,85.73,30.14a.38.38,0,0,0,.75,0c.1-10,1.82-20.46,6.24-29.55.1-.19,0-.52-.22-.55-2.46-.34-4,1.62-4.74,3.73a39.85,39.85,0,0,0-1.92,9.3,77.84,77.84,0,0,0,0,9.78c0,1.54,0,3.06.06,4.61A6.56,6.56,0,0,1,85,31.81c-.26.4.38.78.65.38Z"/><path class="cls-5" d="M81.53,66c.17-2.49,4-8.62,5.62-10.5,3.9-4.44,8.17-8.64,11.32-13.65S103.6,30.76,102.35,25c1.47,9.71-4.14,19.08-10.64,26.44C87.69,56,83,60.55,82,66.54"/><path class="cls-5" d="M81.9,66a12,12,0,0,1,1.59-4.15,41.77,41.77,0,0,1,2.6-4.31c2.29-3.35,5.36-6.15,8-9.23,5.52-6.46,10.42-14.58,8.64-23.43-.1-.48-.79-.26-.73.2,1.19,8.43-2.88,16.41-7.9,22.89-4.51,5.82-11,10.89-12.51,18.48-.09.47.64.67.73.2,1.57-8.07,8.94-13.43,13.54-19.79s8-14,6.87-22l-.73.2c2,9.72-4.39,18.25-10.49,25a65.29,65.29,0,0,0-6.8,8.15c-1.43,2.25-3.27,5-3.55,7.73-.05.48.7.47.75,0Z"/><path class="cls-5" d="M81.28,61.25c-.11-3.6-2.12-6.85-4.34-9.68C70.18,42.89,60.67,35.7,57.72,25.1a22.12,22.12,0,0,0,5.1,21.31c3,3.16,6.94,5.32,10.34,8.07S81.29,61.62,81.53,66"/><path class="cls-5" d="M81.66,61.25c-.2-3.75-2.14-7-4.39-9.87s-4.66-5.47-7.09-8.11c-5-5.4-10-11.05-12.1-18.27a.38.38,0,0,0-.72,0,22.66,22.66,0,0,0,2.36,18c3.6,6,10,8.92,15.1,13.41,2.78,2.48,6,5.69,6.33,9.61,0,.48.79.48.75,0-.23-2.86-1.89-5.3-3.75-7.38A44,44,0,0,0,71,52.37c-3-2.15-6.11-4.15-8.54-6.93A21.77,21.77,0,0,1,58.08,25.2h-.72c1.92,6.7,6.37,12.11,11,17.17,2.4,2.63,4.86,5.22,7.13,8,2.61,3.15,5.22,6.69,5.44,10.92,0,.48.77.48.75,0Z"/><path class="cls-5" d="M81.55,91.29a14.56,14.56,0,0,0,8-7.91A17.18,17.18,0,0,0,90.14,72c-.8-2.81-2.27-5.48-2.38-8.4l3.71,10.54c1,2.71,1.89,5.79.59,8.35-1,2-3.22,3.17-5.23,4.27Q84,88.33,81.4,90.08"/><path class="cls-5" d="M81.65,91.65a15.31,15.31,0,0,0,9.13-10.82,18,18,0,0,0-.06-8.06c-.72-3.1-2.39-5.91-2.59-9.13l-.73.1,2.82,8c.89,2.51,2.09,5.16,2.1,7.87,0,3-1.95,4.73-4.33,6.1s-4.58,2.58-6.78,4c-.4.26,0,.91.38.65,2.42-1.6,5-2.9,7.45-4.43,2-1.23,3.64-2.88,4-5.31.36-2.65-.72-5.29-1.58-7.73l-3.31-9.4c-.13-.37-.76-.34-.74.1.16,2.56,1.18,4.85,2,7.24a18.14,18.14,0,0,1,.93,8.33,14.67,14.67,0,0,1-8.86,11.72c-.45.18-.25.9.2.72Z"/><path class="cls-5" d="M79.27,111c-.28-3.13-1.79-6-3.31-8.74-2.72-4.88-5.63-9.73-9.58-13.68s-9.1-6.94-14.67-7.31A75.07,75.07,0,0,1,73.18,99.77c.93,1.17,1.83,2.37,2.72,3.57L80.08,109"/><path class="cls-5" d="M79.64,111c-.41-3.83-2.36-7.18-4.23-10.47a67.22,67.22,0,0,0-6.12-9.27c-4.4-5.42-10.44-9.8-17.58-10.36a.38.38,0,0,0-.19.7A75.21,75.21,0,0,1,67,93.38c4.83,4.79,8.74,10.33,12.79,15.76.28.39.94,0,.65-.37-4.09-5.49-8-11.09-12.91-15.92A76.06,76.06,0,0,0,51.9,81l-.19.7c6.94.54,12.78,4.88,17.05,10.14a65.5,65.5,0,0,1,5.79,8.74c1.87,3.27,3.93,6.64,4.34,10.47,0,.47.8.48.75,0Z"/><path class="cls-5" d="M66.75,130.71c5.73.35,11.77.64,16.91-1.92a25.13,25.13,0,0,0,7.65-6.43,23,23,0,0,0,4.6-7.53,11.06,11.06,0,0,0-.47-8.62A11.52,11.52,0,0,1,93,114.45a33.54,33.54,0,0,1-6.33,6.09c-5.31,4.28-12.23,8.87-19,9.91"/><path class="cls-5" d="M66.75,131.09a48.11,48.11,0,0,0,12.17-.33,20.09,20.09,0,0,0,9.92-5.23c5-4.74,10.59-12.39,6.92-19.51-.16-.31-.74-.18-.7.19.84,7-5.63,11.82-10.55,15.55s-10.63,7.29-16.9,8.33c-.47.07-.27.8.2.72,6.64-1.09,12.6-4.92,17.83-9,4.89-3.79,11-8.66,10.17-15.62l-.7.19c3.61,7-2.38,14.71-7.42,19.16a19.25,19.25,0,0,1-9.8,4.63,51.22,51.22,0,0,1-11.14.15c-.48,0-.48.72,0,.75Z"/><path class="cls-5" d="M62.57,133.33a14.54,14.54,0,0,0,3.74-5.05c.83-2.32.43-4.87,0-7.3a25.46,25.46,0,0,0-1.91-7.15,8.62,8.62,0,0,0-5.37-4.77,32.74,32.74,0,0,1,3.13,17.67c-.21,2-.16,5.52.88,7.25"/><path class="cls-5" d="M62.83,133.59c1.68-1.68,3.4-3.47,4-5.83.67-2.54.13-5.22-.3-7.74-.78-4.57-2.37-9.93-7.4-11.32a.38.38,0,0,0-.42.55A32.78,32.78,0,0,1,62,123.41c0,3.5-1,7.52.76,10.76.23.43.88.05.65-.38a11.37,11.37,0,0,1-.92-5.83c.08-2.12.33-4.19.21-6.32a33.55,33.55,0,0,0-3.31-12.77l-.42.55c4.77,1.32,6.14,6.51,6.88,10.79.39,2.32.9,4.8.35,7.14s-2.25,4.07-3.89,5.71c-.34.34.19.88.53.53Z"/><path class="cls-4" d="M47.93,162.09a26.51,26.51,0,0,1,3.31-14.19c2.29-4.08,5.7-7.27,9.28-10.21s7.24-5.57,10.43-8.84a33.78,33.78,0,0,0,7.47-12,69.73,69.73,0,0,0,3.33-14.63,158.72,158.72,0,0,0,1.49-16.86c.38-11.49-1.07-23-.32-34.48.68-10.52,3.64-21.48,11.36-29.07,1.38-1.36-.74-3.48-2.12-2.12-15.86,15.6-12,39.58-11.84,59.6a154.78,154.78,0,0,1-.86,17.22,96.66,96.66,0,0,1-2.77,15.94,32.43,32.43,0,0,1-6.54,12.82c-3.1,3.54-6.89,6.36-10.54,9.28-4.1,3.3-8.08,6.84-10.75,11.44a29.46,29.46,0,0,0-3.93,16.07c.09,1.92,3.09,1.93,3,0Z"/></g></svg>
