<svg xmlns="http://www.w3.org/2000/svg" viewBox="0 0 343 528"><defs><style>.cls-1{fill:#d7dddd;}.cls-2{fill:#e6e6e6;}.cls-3{fill:#f8b54a;}.cls-4{fill:#e4c85b;}.cls-5{fill:#e13c30;}.cls-6{fill:#fff;opacity:0.3;}</style></defs><g id="Layer_7" data-name="Layer 7"><path class="cls-1" d="M234.24,179.33c-1.19,7.4-.49,15-1,22.46-.42,6.38-.15,4.35-1,36.14-.25,9.25-.53,19.88-1,33.2-.46,13.84-.67,17.7-1,26.36-.32,9.05-.46,15.57-1,48.82-.81,53.62-.66,51.76-1,59.57-.3,7.62-.79,18-1,33.2-.13,9.52-.07,17.31,0,22.46a5.87,5.87,0,0,1,3.9,2c.52.68.83,1.53,1,4.88.11,2.66,0,4.66,0,5.86-.11,3.34,0,3.76,0,6.84-.11,8.34-.22,12.77-2.94,16.6a11.53,11.53,0,0,1-2.92,2.92c-1.73,1.15-3.35,1.43-6.84,2-4,.61-6.08.92-6.84,1-5,.41-22.82.68-41,1.44l-.51,0c-18.35-.77-36-.57-41-1-.77-.06-2.79-.37-6.83-1-3.49-.52-5.11-.8-6.84-1.94a11.41,11.41,0,0,1-2.93-2.94c-2.71-3.83-2.84-8.25-2.93-16.6,0-3.08.09-3.49,0-6.84,0-1.19-.12-3.2,0-5.86.15-3.34.44-4.19,1-4.88a5.75,5.75,0,0,1,3.9-1.94c.06-5.15.12-13,0-22.46-.18-15.21-.67-25.59-1-33.21-.3-7.81-.15-5.94-1-59.57-.51-33.26-.65-39.77-1-48.83-.3-8.66-.51-12.51-1-26.36-.45-13.31-.73-23.93-1-33.2-.84-31.79-.57-29.74-1-36.14-.48-7.47.22-15.05-1-22.46-.24-1.54-.16-4.61,0-10.74a8.35,8.35,0,0,1,1-3.9,8.22,8.22,0,0,1,2.93-2.93c3.51-2.2,7.55-5.37,15.63-11.72,3-2.37,5.17-4.29,6.84-5.86s3-2.93,3.9-3.91V134.9H142v-2h2.94v-2h1v-2h1v-1h2.93V122.2h-2V68.49a3.17,3.17,0,0,1,0-1.95c.52-1.1,1.78-1.09,2-2,.08-.43-.18-.65-.49-1.07A5.57,5.57,0,0,1,149,63a2.84,2.84,0,0,1-.16-.35l-.06-.18a6.83,6.83,0,0,1,0-2c0-.12,0-.25,0-.39,0-.39.05-.85.09-1.39.13-1.93.19-2.28,0-2.93-.29-1-.65-.94-1-2s-.05-1.34,0-3.9c0-.82,0-1.52,0-1.95-.05-2.68-.33-3,0-3.91a3.91,3.91,0,0,1,.4-.75l.16-.21a2.64,2.64,0,0,0,.21-.29,1.29,1.29,0,0,0,.21-.7c0-.87-.64-1.08-1-2-.61-1.63,1-2.5,1-4.89,0-1.79-1-1.92-1-3.91a7.79,7.79,0,0,1,1-3.9c1.49-2.17,4.86-2,10.72-2,2.59,0,6.43.06,11.22,0h0V25h1c5,.06,9,0,11.64,0,2.41,0,4.39-.08,6,0l.57.05c2,.18,3.42.68,4.24,1.87a7.68,7.68,0,0,1,1,3.91c0,2-1,2.12-1,3.9,0,2.4,1.59,3.25,1,4.88-.34.89-1,1.09-1,2s.57.9,1,2c.34.89.07,1.23,0,3.91,0,.44,0,1.13,0,2,.07,2.56.32,2.93,0,3.91s-.68.89-1,2c-.19.64-.15,1,0,2.93.2,3.11.17,3.46,0,3.91-.45,1.12-1.12,1.31-1,1.95.17.86,1.44.85,1.94,2a2.93,2.93,0,0,1,0,2v53.7h-1.94v5.86h2.92v1h1v1.95h1v1.95H201v2H204v5.86c.91,1,2.24,2.33,3.9,3.9s3.82,3.49,6.84,5.86c8.07,6.35,12.12,9.53,15.62,11.72a7.61,7.61,0,0,1,3.91,6.84C234.41,174.71,234.49,177.78,234.24,179.33Z"/><path class="cls-2" d="M227.89,254a35.59,35.59,0,0,0,0,3.91c-3.84,61.29-4.47,81.11-3.9,84a16.15,16.15,0,0,1,0,6.84,15.72,15.72,0,0,1-1,2.93H119.5a15.72,15.72,0,0,1-1-2.93,16.15,16.15,0,0,1,0-6.84c.57-2.87-.06-22.69-3.9-84a35.59,35.59,0,0,0,0-3.91c-.22-3.73-.92-5.31,0-6.83a5.07,5.07,0,0,1,2.93-2c4.42-1.57,8.44-2.89,11.71-3.9,1.93-.62,3.88-1.26,5.86-2,4.47-1.56,8.69-3.2,12.7-4.89l5.86-1.95a10.75,10.75,0,0,1,1-1,13.81,13.81,0,0,1,2.93-1.95c1.77-.82,5.57-.81,9.77,1a3.51,3.51,0,0,1,1-2,4.9,4.9,0,0,1,5.85,0,3.51,3.51,0,0,1,1,2c4.2-1.79,8-1.8,9.77-1a13.81,13.81,0,0,1,2.93,1.95,10.75,10.75,0,0,1,1,1l5.86,1.95c4,1.69,8.23,3.33,12.7,4.89,2,.69,3.93,1.33,5.86,2,3.27,1,7.29,2.33,11.71,3.9a5.07,5.07,0,0,1,2.93,2C228.81,248.72,228.11,250.3,227.89,254Z"/><path class="cls-3" d="M188.83,240.36a23.93,23.93,0,0,1-2,2.93,32.16,32.16,0,0,0-2.93,4.88,14.79,14.79,0,0,0-1,3.91H159.54a14.79,14.79,0,0,0-1-3.91,32.16,32.16,0,0,0-2.93-4.88,23.93,23.93,0,0,1-1.95-2.93,9.55,9.55,0,0,1,0-6.83,8.89,8.89,0,0,1,4.88-4.89c1.8-.63,3.42-.38,5.86,0a22.69,22.69,0,0,1,3.91,1,3.68,3.68,0,0,1,1-2.93,2.44,2.44,0,0,1,3.91,0,3.68,3.68,0,0,1,1,2.93,22.69,22.69,0,0,1,3.91-1c2.44-.38,4.06-.63,5.86,0a8.89,8.89,0,0,1,4.88,4.89A9.55,9.55,0,0,1,188.83,240.36Z"/><path class="cls-3" d="M209.4,265.75a19.11,19.11,0,0,0-2.93,3.91,20.15,20.15,0,0,0-1.95,4.88c-.94,3.49-1,6.22-1,12.7,0,4.7,0,7.07,0,7.81.15,10.33.66,12.39,0,17.57a26.57,26.57,0,0,1-1.95,7.82c-1,2.22-2.19,4.93-4.89,6.83-1.54,1.1-2,.81-8.79,2.93-4.18,1.31-3,1.12-5.85,2-4.77,1.41-7.18,1.72-8.79,3.9a6.18,6.18,0,0,0-.65,1.1,5.78,5.78,0,0,1-1.12,1.66l-.19.17a3.4,3.4,0,0,1,0-.45,3.4,3.4,0,0,1,0,.45l-.17-.17a5.82,5.82,0,0,1-1.13-1.66,5.63,5.63,0,0,0-.65-1.1c-1.6-2.18-4-2.49-8.79-3.9-2.82-.84-1.68-.65-5.86-2-6.78-2.12-7.24-1.83-8.78-2.93-2.7-1.9-3.9-4.61-4.89-6.83a26.91,26.91,0,0,1-1.95-7.82c-.66-5.18-.16-7.24,0-17.57,0-.74,0-3.11,0-7.81,0-6.48,0-9.21-1-12.7a19.75,19.75,0,0,0-2-4.88,19.48,19.48,0,0,0-2.93-3.91q1.47-4.87,2.93-9.76c2.37.05,4.37,0,5.86,0,5.85-.13,7.55-.55,8.79-1a17.65,17.65,0,0,0,3.9-1.95s4.8-1,4.89-1a41.89,41.89,0,0,1-3.91,1.95c-1.95,1-4.16,4.17-10.74,7.82-1.43.79-3.41,1.82-5.86,2.93a13.55,13.55,0,0,1,1.95,7.81c-.06,3.25.17,6.51,0,9.76-.33,6.28.21,4.87,0,14.65-.06,2.86,0,6.14,0,12.7a18.13,18.13,0,0,0,1,6.83,15.26,15.26,0,0,0,3.91,5.86,16.17,16.17,0,0,0,4.88,2.93c2.46,1.07,3.15.89,6.83,1.95a42.37,42.37,0,0,1,7.82,2.93,31.5,31.5,0,0,1,5.85,3.91c0,.57,0,1.11,0,1.62,0-.51,0-1.05,0-1.62a32.84,32.84,0,0,1,5.92-3.91,42.84,42.84,0,0,1,7.81-2.93c3.69-1.06,4.38-.88,6.84-1.95a16.29,16.29,0,0,0,4.88-2.93,15,15,0,0,0,3.91-5.86,17.93,17.93,0,0,0,1-6.83c0-6.56.06-9.84,0-12.7-.21-9.78.33-8.37,0-14.65-.17-3.25.06-6.51,0-9.76a14.67,14.67,0,0,1,1-5.86,13.31,13.31,0,0,1,1-2c-2.45-1.11-4.43-2.14-5.86-2.93-6.57-3.65-8.79-6.84-10.74-7.82a43.16,43.16,0,0,1-3.91-1.95c.09-.06,4.88,1,4.88,1a17.77,17.77,0,0,0,3.91,1.95c1.25.43,2.94.85,8.79,1,1.49,0,3.49.05,5.86,0Q207.93,260.87,209.4,265.75Z"/><path class="cls-4" d="M171.28,338.54c0-.84,0-1.68,0-2.63C171.31,336.86,171.33,337.7,171.28,338.54Z"/><path class="cls-4" d="M171.28,338.54c0-.84,0-1.68,0-2.63C171.31,336.86,171.33,337.7,171.28,338.54Z"/><path class="cls-5" d="M227.89,189.58q-.48,15.13-1,30.28A81.63,81.63,0,0,0,216.17,216,89.65,89.65,0,0,0,200.55,213a196.93,196.93,0,0,0-29.3-1A196.85,196.85,0,0,0,142,213,90,90,0,0,0,126.33,216a82,82,0,0,0-10.74,3.91q-.48-15.13-1-30.28c3.39-1.21,7.67-2.59,12.69-3.9a151.35,151.35,0,0,1,43.94-4.89,151.37,151.37,0,0,1,43.95,4.89C220.22,187,224.49,188.37,227.89,189.58Z"/><path class="cls-3" d="M114.62,217.9a171.57,171.57,0,0,1,31.25-6.83c7.8-1,16.59-1,34.17-1,17,0,22.42.56,28.32,1.95a82.16,82.16,0,0,1,18.56,6.84v2.93c-2.22-1.12-5.19-2.51-8.79-3.91a77.81,77.81,0,0,0-8.79-2.93c-2.49-.65-6.05-1.39-14.65-1.95-6.24-.4-11.16-.45-15.28-.45-11,0-16.45,0-23.78.45-8.65.55-15.48,1-24.41,2.93a121,121,0,0,0-16.6,4.88Z"/><path class="cls-3" d="M114.62,188.61a172.62,172.62,0,0,1,31.25-6.84c10.92-1.34,18.73-1.22,34.17-1,17.46.27,23.91,1.47,26.37,2a101.78,101.78,0,0,1,21.48,6.83v2.93c-2.34-1-5.68-2.41-9.76-3.9a91.9,91.9,0,0,0-8.79-2.93c-2.49-.65-6.05-1.4-14.65-2-6.24-.4-11.16-.45-15.28-.45-11,0-16.45,0-23.78.45-8.65.55-15.48,1-24.41,2.93a120.82,120.82,0,0,0-16.6,4.89Z"/><path class="cls-5" d="M195.09,68v53.7h-1.94v.21H147.81V68.49a3.17,3.17,0,0,1,0-1.95c.52-1.1,1.78-1.09,2-2,.08-.43-.18-.65-.49-1.07A4.09,4.09,0,0,1,149,63a2.84,2.84,0,0,1-.16-.35l-.06-.18a6.1,6.1,0,0,1,0-2c0-.12,0-.25,0-.39,0-.39.05-.85.09-1.39.13-1.93.19-2.28,0-2.93-.29-1-.65-.94-1-2s-.05-1.34,0-3.9c0-.82,0-1.52,0-1.95-.05-2.68-.33-3,0-3.91a3,3,0,0,1,.4-.75l.16-.21a2.64,2.64,0,0,0,.21-.29,1.29,1.29,0,0,0,.21-.7c0-.87-.64-1.08-1-2-.61-1.63,1-2.5,1-4.89,0-1.79-1-1.92-1-3.91a7.79,7.79,0,0,1,1-3.9c1.49-2.17,4.86-2,10.72-2,2.59,0,6.43.06,11.22,0V25h1c5,.06,9,0,11.64,0,2.41,0,4.39-.08,6,0l.57.05c2,.19,3.36.69,4.16,1.87a7.68,7.68,0,0,1,1,3.91c0,2-1,2.12-1,3.9,0,2.4,1.59,3.25,1,4.88-.33.89-1,1.09-1,2s.57.9,1,2c.34.89.07,1.23,0,3.91,0,.44,0,1.13,0,2,.07,2.56.32,2.93,0,3.91s-.67.89-1,2c-.19.64-.15,1,0,2.93.2,3.11.17,3.46,0,3.91-.44,1.12-1.11,1.31-1,1.95.18.86,1.44.85,1.94,2A2.93,2.93,0,0,1,195.09,68Z"/><path class="cls-5" d="M200.15,273.94c.15.17.28.25.27.39,0,.64-2.87.91-4.12,1-3.78.35-5.68.53-8.24,0a20,20,0,0,1-7.21-3.09,2.4,2.4,0,0,0,1-1,2.51,2.51,0,0,0,0-2.06c-.38-.86-1.63-1.27-4.12-2.06a22.87,22.87,0,0,0-5.15-1h-2.06a22.87,22.87,0,0,0-5.15,1c-2.48.79-3.74,1.2-4.11,2.06a2.47,2.47,0,0,0,0,2.06,2.39,2.39,0,0,0,1,1,19.87,19.87,0,0,1-7.2,3.09c-2.57.53-4.46.35-8.24,0-1.26-.12-4.07-.39-4.12-1,0-.14.11-.22.27-.39a3.91,3.91,0,0,0,.76-2.7c0-1.79-1.26-2.91-1-3.09s1.32,1.14,3.09,2.06a10.3,10.3,0,0,0,4.12,1,16,16,0,0,0,7.21-1,5.22,5.22,0,0,1,0-2.06,7.08,7.08,0,0,1,3.09-4.12,13.55,13.55,0,0,1,4.11-2.06,25.75,25.75,0,0,1,14.42,0,13.66,13.66,0,0,1,4.12,2.06,7.12,7.12,0,0,1,3.09,4.12,5.62,5.62,0,0,1,0,2.06,16,16,0,0,0,7.21,1,10.38,10.38,0,0,0,4.12-1c1.77-.92,2.86-2.26,3.09-2.06s-1,1.3-1,3.09A3.91,3.91,0,0,0,200.15,273.94Z"/><path class="cls-6" d="M171.76,25.05V505l-.51,0c-18.35-.77-36-.57-41-1-.77-.06-2.79-.37-6.83-1-3.49-.52-5.11-.8-6.84-1.94a11.41,11.41,0,0,1-2.93-2.94c-2.71-3.83-2.84-8.25-2.93-16.6,0-3.08.09-3.49,0-6.84,0-1.19-.12-3.2,0-5.86.15-3.34.44-4.19,1-4.88a5.75,5.75,0,0,1,3.9-1.94c.06-5.15.12-13,0-22.46-.18-15.21-.67-25.59-1-33.21-.3-7.81-.15-5.94-1-59.57-.51-33.26-.65-39.77-1-48.83-.3-8.66-.51-12.51-1-26.36-.45-13.31-.73-23.93-1-33.2-.84-31.79-.57-29.74-1-36.14-.48-7.47.22-15.05-1-22.46-.24-1.54-.16-4.61,0-10.74a8.35,8.35,0,0,1,1-3.9,8.22,8.22,0,0,1,2.93-2.93c3.51-2.2,7.55-5.37,15.63-11.72,3-2.37,5.17-4.29,6.84-5.86s3-2.93,3.9-3.91V134.9H142v-2h2.94v-2h1v-2h1v-1h2.93V122.2h-2V68.49a3.17,3.17,0,0,1,0-1.95c.52-1.1,1.78-1.09,2-2,.08-.43-.18-.65-.49-1.07A4.09,4.09,0,0,1,149,63a2.84,2.84,0,0,1-.16-.35l-.06-.18a6.1,6.1,0,0,1,0-2c0-.12,0-.25,0-.39,0-.39.05-.85.09-1.39.13-1.93.19-2.28,0-2.93-.29-1-.65-.94-1-2s-.05-1.34,0-3.9c0-.82,0-1.52,0-1.95-.05-2.68-.33-3,0-3.91a3,3,0,0,1,.4-.75l.16-.21a2.64,2.64,0,0,0,.21-.29,1.29,1.29,0,0,0,.21-.7c0-.87-.64-1.08-1-2-.61-1.63,1-2.5,1-4.89,0-1.79-1-1.92-1-3.91a7.79,7.79,0,0,1,1-3.9c1.49-2.17,4.86-2,10.72-2,2.59,0,6.43.06,11.22,0V25h1Z"/></g></svg>
