<svg xmlns="http://www.w3.org/2000/svg" width="4.57cm" height="4.21cm" viewBox="0 0 129.64 119.21"><defs><style>.cls-1,.cls-2{fill:#f1818d;}.cls-1{fill-rule:evenodd;}</style></defs><title>logo</title><g id="ingridienser"><g id="drinks"><g id="LOGO"><path class="cls-1" d="M69.82,119.21,10,44.61s11.47,2.76,21.14,2.76c8.29,0,15.3-2.76,20.54-2.76,4.24,0,9.85,2.76,16.76,2.76s14-2.76,19.34-2.76c7.07,0,16.7,2.76,22.1,2.76a86.66,86.66,0,0,0,19.76-2.76Z"/></g><circle class="cls-2" cx="95.5" cy="30.5" r="2.5"/><circle class="cls-2" cx="92.5" cy="3.5" r="3.5"/><circle class="cls-2" cx="105" cy="17" r="4"/><path d="M9,28.22,4.42,32.91V38H3.49V18.86h.93V31.71L16.91,18.86h1.15L9.6,27.59,18.66,38H17.51Z"/><path d="M22.5,18.86h.93V37.11H34.61V38H22.5Z"/><path d="M38.38,18.86h.92V38h-.92Z"/><path d="M61.54,18.86V38h-.77L47.21,20.55V38h-.92V18.86h.76L60.61,36.27V18.86Z"/><path d="M74,28.22l-4.55,4.69V38h-.93V18.86h.93V31.71L81.94,18.86h1.14l-8.45,8.73L83.68,38H82.54Z"/></g></g></svg>
