<svg xmlns="http://www.w3.org/2000/svg" width="6.91cm" height="4.45cm" viewBox="0 0 195.89 126.22"><defs><style>.cls-1{fill:#dbe2ec;}.cls-1,.cls-3{stroke:#b3b3b3;stroke-miterlimit:10;stroke-width:7px;}.cls-2{fill:#fff;opacity:0.3;}.cls-3{fill:none;}.cls-4{fill:#b3b3b3;}</style></defs><title>sog</title><g id="ingridienser"><g id="drinks"><path class="cls-1" d="M72.53,101.61A50.77,50.77,0,1,1,101.61,36,50.71,50.71,0,0,1,72.53,101.61Z"/><path class="cls-2" d="M88.58,16.86,19.26,91A50.76,50.76,0,0,1,88.58,16.86Z"/><path class="cls-3" d="M72.53,101.61A50.77,50.77,0,1,1,101.61,36,50.71,50.71,0,0,1,72.53,101.61Z"/><path class="cls-4" d="M192.51,114.82l-89-43.1A52.2,52.2,0,1,0,98.24,82.5l89,43.12a6,6,0,0,0,5.23-10.8ZM32.8,98.59a49.25,49.25,0,1,1,67.91-27.91,50.75,50.75,0,0,1-5,10.25A49.32,49.32,0,0,1,32.8,98.59Z"/></g></g></svg>
