<svg xmlns="http://www.w3.org/2000/svg" width="48cm" height="27cm" viewBox="0 0 1360.63 765.35"><defs><style>.cls-1{fill:#fcf9f9;}.cls-2,.cls-5{fill:#f1f1f1;}.cls-15,.cls-3{fill:#f4f4f4;}.cls-3{stroke:#d1d1d1;}.cls-11,.cls-13,.cls-3,.cls-7,.cls-8{stroke-miterlimit:10;}.cls-3,.cls-8{stroke-width:3px;}.cls-13,.cls-4{fill:#e1e1e1;}.cls-5{opacity:0.7;}.cls-6,.cls-7{fill:#e6e6e6;}.cls-7,.cls-8{stroke:#e6e6e6;}.cls-7{stroke-width:2px;}.cls-8{fill:none;stroke-linecap:round;}.cls-9{fill:#9b9b9b;}.cls-10,.cls-14{fill:#f2f2f2;}.cls-11,.cls-17{fill:#3d3d3d;}.cls-11{stroke:#3d3d3d;}.cls-12{fill:#6d6d6d;}.cls-13{stroke:#e1e1e1;}.cls-14,.cls-18{opacity:0.3;}.cls-16{fill:#d1d1d1;}.cls-19,.cls-20{fill:#f1818d;}.cls-19{fill-rule:evenodd;}</style></defs><title>splash-bg</title><g id="drinks"><path class="cls-1" d="M1360.63,0V765.36H528c.07-9,.21-17,.33-22.35a6.19,6.19,0,0,1,1.11-3.38c2.13-1.29,15.68-9.56,20.15-14.92,4-4.75,5.41-11.1,6.56-16.21.76-3.36,1.47-6.53,2.67-7.92,1.53-1.79,4-3.07,6.75-4.56a46.1,46.1,0,0,0,12.76-9c.07-.06.11-.12.17-.18-.56-.14-1.09-.3-1.64-.46s-1.07-.34-1.59-.54a45,45,0,0,1-11.09,7.57c-3.08,1.63-5.74,3-7.64,5.25-1.68,2-2.44,5.32-3.31,9.22-1.16,5-2.45,10.75-5.94,14.94a49.68,49.68,0,0,1-8.58,7.2c-3.67,1.92-12.53,6.15-16.17,6.15-3.29,0-12.37-4.25-16.18-6.16h0c-3.44-2.46-6.81-5.1-8.54-7.18-3.49-4.18-4.78-9.9-5.91-14.93-.89-3.9-1.64-7.27-3.33-9.23-1.9-2.22-4.56-3.62-7.62-5.25-3.71-2-7.9-4.18-12-8.47s-6.5-13.28-7.68-19.73h-1.61l1.55-.39c-.73-4.08-1-7.09-1-7.17a1.5,1.5,0,1,0-3,.25c.07.85,1.82,21.07,9.55,29.12a46.55,46.55,0,0,0,12.76,9c2.81,1.49,5.23,2.77,6.76,4.56,1.2,1.39,1.93,4.57,2.68,7.93,1.15,5.1,2.59,11.45,6.54,16.19,4.48,5.37,18,13.64,20.17,14.93a6.26,6.26,0,0,1,1.09,3.38c.13,5.32.26,13.32.34,22.35H0V0Z"/><path class="cls-2" d="M1207.68,650.13l-31,40.63-25.91,33.92a8.33,8.33,0,0,0-1.71,4.89c-.12,5.21-.37,19.52-.42,35.79h-7.16c0-16.27-.29-30.58-.42-35.79a8.28,8.28,0,0,0-1.72-4.89l-25.09-32.86-20-26.2-3.06-4-8.76-11.47Z"/><path class="cls-3" d="M1077.56,700.35a41.62,41.62,0,0,1,33.52-76.07q1.28.5,2.49,1.05"/><path class="cls-4" d="M1094.59,659.2l-.71-.67c-.58-.54-14.08-13.47-16.78-22.71-1.07-3.68,1.05-6.61,6.27-8.72a10.76,10.76,0,0,1,8-.33,5.88,5.88,0,0,1,3.26,3.44c3.43,9,.24,27.25.09,28Z"/><path class="cls-4" d="M1112.13,628.33l-14.27,29.72c0-1.91-.26-19.63,4.2-27.77C1103.85,627,1107.23,626.37,1112.13,628.33Z"/><path class="cls-4" d="M1092.86,668.47,1079,697.39a10.28,10.28,0,0,1-5-5,6,6,0,0,1,.13-4.75C1077.49,680.05,1089.3,671.05,1092.86,668.47Z"/><path class="cls-4" d="M1092.3,664.87l-.67.71c-.54.58-13.47,14.09-22.7,16.77a5.53,5.53,0,0,1-4.08-.24c-1.84-.88-3.39-2.9-4.66-6a10.81,10.81,0,0,1-.32-8,5.94,5.94,0,0,1,3.44-3.26c9-3.43,27.25-.24,28-.09Z"/><path class="cls-4" d="M1092.28,661.57l-1,0c-.76,0-18.38.4-27.13-3.8l-.78-.4c-3.36-1.85-4-5.42-1.75-10.6a10.8,10.8,0,0,1,5.45-5.92,6,6,0,0,1,4.75.13c8.76,3.92,19.43,19.1,19.88,19.75Z"/><path class="cls-5" d="M1207.68,650.13l-31,40.63-25.91,33.92a8.33,8.33,0,0,0-1.71,4.89c-.12,5.21-.37,19.52-.42,35.79h-7.16c0-16.27-.29-30.58-.42-35.79a8.28,8.28,0,0,0-1.72-4.89l-25.09-32.86-20-26.2-3.06-4-8.76-11.47Z"/><path class="cls-6" d="M1176.93,691l-25.38,34.3a7.28,7.28,0,0,0-1.51,4.31c-.14,6.5-.37,20.36-.41,35.77h-9.17c0-15.41-.27-29.27-.42-35.77a7.36,7.36,0,0,0-1.51-4.3L1114,692l.27-.22,1.31-1c.53.65,1.15,1.41,1.86,2.23l0,0c6.75,8,20.73,22.81,27.59,22.81h0c6.8,0,21.19-15.34,28.26-23.68.78-.91,1.47-1.74,2-2.46l1.31,1Z"/><path class="cls-6" d="M1142.54,729.54c0,.38.35,16.51.42,35.82h-3c0-13.58-.24-26.56-.44-35.75a6.85,6.85,0,0,0-1.4-4l-44.4-59-3.76-5-13.06-17.36-2.09-2.77a1.51,1.51,0,0,1,.31-2.1,1.49,1.49,0,0,1,2.09.29l7.86,10.45,10.12,13.44,22.19,29.48,0,0,23.08,30.69A9.82,9.82,0,0,1,1142.54,729.54Z"/><path class="cls-6" d="M1215.24,641.49,1152,725.58a6.79,6.79,0,0,0-1.42,4c-.21,9.19-.39,22.17-.45,35.75h-3c.08-19.31.4-35.44.41-35.82a9.74,9.74,0,0,1,2-5.77l23.74-31.55L1205,650.13l7.85-10.45a1.5,1.5,0,0,1,2.4,1.81Z"/><path class="cls-2" d="M863.57,238.21c5.54,1.63,8.12,4.06,8.12,4.06h-89.3s2.58-2.43,8.12-4.06C801,235.09,818.3,231,821,225c3.61-8.11,2.41-86.57,2.09-100.45a8.38,8.38,0,0,0-1.71-4.89L764.4,45.13H889.68l-56.92,74.55a8.32,8.32,0,0,0-1.72,4.89c-.31,13.88-1.51,92.34,2.09,100.45C835.79,231,853,235.09,863.57,238.21Z"/><path class="cls-3" d="M759.56,95.35a41.62,41.62,0,0,1,33.52-76.07q1.27.49,2.49,1"/><path class="cls-4" d="M776.59,54.2l-.71-.67C775.3,53,761.8,40.06,759.1,30.82c-1.07-3.68,1-6.61,6.27-8.72a10.76,10.76,0,0,1,8-.33,5.88,5.88,0,0,1,3.26,3.44c3.43,9,.24,27.25.09,28Z"/><path class="cls-4" d="M794.13,23.33,779.86,53.05c0-1.91-.26-19.63,4.2-27.77C785.85,22,789.23,21.37,794.13,23.33Z"/><path class="cls-4" d="M774.86,63.47,761,92.39a10.28,10.28,0,0,1-5-5,6,6,0,0,1,.13-4.75C759.49,75.05,771.3,66.05,774.86,63.47Z"/><path class="cls-4" d="M774.3,59.87l-.67.71c-.54.58-13.47,14.09-22.7,16.77a5.53,5.53,0,0,1-4.08-.24c-1.84-.88-3.39-2.9-4.66-6a10.81,10.81,0,0,1-.32-8,5.94,5.94,0,0,1,3.44-3.26c9-3.43,27.25-.24,28-.09Z"/><path class="cls-4" d="M774.28,56.57l-1,0c-.76,0-18.38.4-27.13-3.8l-.78-.4c-3.36-1.85-4-5.42-1.75-10.6a10.8,10.8,0,0,1,5.45-5.92,6,6,0,0,1,4.75.13c8.76,3.92,19.43,19.1,19.88,19.75Z"/><path class="cls-5" d="M863.57,238.21c5.54,1.63,8.12,4.06,8.12,4.06h-89.3s2.58-2.43,8.12-4.06C801,235.09,818.3,231,821,225c3.61-8.11,2.41-86.57,2.09-100.45a8.38,8.38,0,0,0-1.71-4.89L764.4,45.13H889.68l-56.92,74.55a8.32,8.32,0,0,0-1.72,4.89c-.31,13.88-1.51,92.34,2.09,100.45C835.79,231,853,235.09,863.57,238.21Z"/><path class="cls-7" d="M863.57,238.21c5.54,1.63,8.12,4.06,8.12,4.06h-89.3s2.58-2.43,8.12-4.06C801,235.09,818.3,231,821,225c3.61-8.11,2.41-86.57,2.09-100.45a8.38,8.38,0,0,0-1.71-4.89L796.76,86.45S817.32,111.92,827,111.9s31.09-26.52,31.09-26.52l-25.37,34.3a8.32,8.32,0,0,0-1.72,4.89c-.31,13.88-1.51,92.34,2.09,100.45C835.79,231,853,235.09,863.57,238.21Z"/><path class="cls-8" d="M896.05,35.58l-63.29,84.1a8.32,8.32,0,0,0-1.72,4.89c-.31,13.88-1.51,92.34,2.09,100.45,2.66,6,19.91,10.07,30.44,13.19,5.54,1.63,8.12,4.06,8.12,4.06h-89.3s2.58-2.43,8.12-4.06C801,235.09,818.3,231,821,225c3.61-8.11,2.41-86.57,2.09-100.45a8.38,8.38,0,0,0-1.71-4.89L758,35.58"/><path class="cls-2" d="M317.69,651.13l-56.94,74.55a8.33,8.33,0,0,0-1.71,4.89c-.12,5.11-.35,18.93-.42,34.79h-7.16c-.06-15.85-.29-29.69-.42-34.79a8.28,8.28,0,0,0-1.72-4.89l-45.09-59.06-3.06-4-8.76-11.47Z"/><path class="cls-3" d="M187.56,701.35a41.62,41.62,0,0,1,33.52-76.07q1.28.5,2.49,1.05"/><path class="cls-4" d="M204.59,660.2l-.71-.67c-.58-.54-14.08-13.47-16.78-22.71-1.07-3.68,1.05-6.61,6.27-8.72a10.76,10.76,0,0,1,8-.33,5.88,5.88,0,0,1,3.26,3.44c3.43,9,.24,27.25.09,28Z"/><path class="cls-4" d="M222.13,629.33l-14.27,29.72c0-1.91-.26-19.63,4.2-27.77C213.85,628,217.23,627.37,222.13,629.33Z"/><path class="cls-4" d="M202.86,669.47,189,698.39a10.28,10.28,0,0,1-5-5,6,6,0,0,1,.13-4.75C187.49,681.05,199.3,672.05,202.86,669.47Z"/><path class="cls-4" d="M202.3,665.87l-.67.71c-.54.58-13.47,14.09-22.7,16.77a5.53,5.53,0,0,1-4.08-.24c-1.84-.88-3.39-2.9-4.66-6a10.81,10.81,0,0,1-.32-8,5.94,5.94,0,0,1,3.44-3.26c9-3.43,27.25-.24,28-.09Z"/><path class="cls-4" d="M202.28,662.57l-1,0c-.76,0-18.38.4-27.13-3.8l-.78-.4c-3.36-1.85-3.95-5.42-1.75-10.6a10.8,10.8,0,0,1,5.45-5.92,6,6,0,0,1,4.75.13c8.76,3.92,19.43,19.1,19.88,19.75Z"/><path class="cls-5" d="M317.69,651.13l-56.94,74.55a8.33,8.33,0,0,0-1.71,4.89c-.12,5.11-.35,18.93-.42,34.79h-7.16c-.06-15.85-.29-29.69-.42-34.79a8.28,8.28,0,0,0-1.72-4.89l-45.09-59.06-3.06-4-8.76-11.47Z"/><path class="cls-6" d="M325.24,642.49,262,726.58a6.79,6.79,0,0,0-1.42,4c-.21,9-.38,21.54-.44,34.75H250c-.06-13.22-.24-25.78-.44-34.75a6.85,6.85,0,0,0-1.4-4l-44.4-59-3.76-5-13.06-17.36-2.09-2.77a1.51,1.51,0,0,1,.31-2.1,1.49,1.49,0,0,1,2.09.29l7.86,10.45,10.12,13.44,22.19,29.48,0,0c6.75,8,20.73,22.81,27.59,22.81h0c6.8,0,21.19-15.34,28.26-23.68L315,651.13l7.86-10.45a1.5,1.5,0,0,1,2.4,1.81Z"/><path class="cls-9" d="M908.51,649.26,878.1,689.83l-25.69,34.3a8.34,8.34,0,0,0-1.72,4.92c-.13,5.27-.38,19.81-.45,36.31h-7.17c-.06-16.49-.3-31-.41-36.31a8.48,8.48,0,0,0-1.72-4.92L816,690.9l-31.21-41.64Z"/><polygon class="cls-10" points="790.33 655.54 784.82 648.2 908.51 648.2 903.08 655.54 790.33 655.54"/><path class="cls-6" d="M878.69,690.29l-25.48,34.44a7.22,7.22,0,0,0-1.52,4.34c-.16,6.59-.38,20.67-.44,36.29h-9.18c-.05-15.62-.27-29.7-.41-36.29a7.43,7.43,0,0,0-1.52-4.33l-24.68-33.39.57-.45,1-.77c.53.66,1.16,1.41,1.87,2.24l0,0c6.81,8,20.84,22.91,27.74,22.91h0c6.82,0,21.29-15.41,28.39-23.79.78-.92,1.47-1.75,2.06-2.47l1,.77Z"/><path class="cls-6" d="M844.16,729c0,.39.33,16.79.41,36.35h-3c0-13.78-.22-27-.43-36.28a6.89,6.89,0,0,0-1.43-4l-63.56-84.46a1.5,1.5,0,1,1,2.39-1.8l7.1,9.42.8,1.06,4.71,6.28,27.73,36.83,0,0,23.21,30.82A9.89,9.89,0,0,1,844.16,729Z"/><path class="cls-6" d="M917.17,640.58,853.6,725a6.8,6.8,0,0,0-1.41,4c-.21,9.32-.41,22.5-.46,36.28h-3c.09-19.56.42-36,.44-36.35a9.86,9.86,0,0,1,2-5.79l23.85-31.69,27.1-36,4.72-6.28.79-1.06,7.09-9.42a1.5,1.5,0,0,1,2.41,1.8Z"/><ellipse class="cls-11" cx="855.18" cy="649.02" rx="6.69" ry="3.72" transform="translate(-178.34 358.5) rotate(-21.5)"/><path class="cls-12" d="M850.78,651.22a10.56,10.56,0,0,1,4.32-1.75c.74-.14,1.49-.23,2.23-.35a2.21,2.21,0,0,0,1.66-.91c.26-.41-.39-.78-.65-.38-.35.56-1.19.57-1.77.65-.73.1-1.47.22-2.19.38a10.33,10.33,0,0,0-4,1.72c-.38.28,0,.93.38.64Z"/><ellipse class="cls-11" cx="837.07" cy="647.96" rx="3.72" ry="6.69" transform="translate(-131 1076.18) rotate(-61.6)"/><path class="cls-12" d="M834.71,648.15a10.2,10.2,0,0,1,4,2.06c.57.46,1.11.95,1.65,1.43a2.45,2.45,0,0,0,1.89.85c.47-.06.47-.81,0-.75-.75.1-1.31-.59-1.82-1s-1.09-1-1.66-1.38a10.26,10.26,0,0,0-3.83-1.89c-.47-.11-.67.61-.2.72Z"/><ellipse class="cls-11" cx="845.45" cy="645.85" rx="7.01" ry="4.35" transform="translate(-123.49 206.45) rotate(-12.98)"/><path class="cls-12" d="M850.52,644.38a9.79,9.79,0,0,0-4.33.8c-.66.27-1.3.58-1.94.91s-1.5,1-2.21.68c-.43-.21-.81.44-.38.65a2.23,2.23,0,0,0,2-.17c.7-.35,1.37-.74,2.08-1.07a9.75,9.75,0,0,1,4.76-1c.48,0,.48-.72,0-.75Z"/><path class="cls-10" d="M585.44,665.17s-.57,10-5.73,17.68a22.09,22.09,0,0,1-2.48,3.09c-.13.14-.25.27-.39.4-.54-.17-1.07-.34-1.59-.54a45,45,0,0,1-11.09,7.57c-3.08,1.63-5.74,3-7.64,5.25-1.68,2-2.44,5.32-3.31,9.22-1.16,5-2.45,10.75-5.94,14.94a49.68,49.68,0,0,1-8.58,7.2c-3.67,1.92-12.53,6.15-16.17,6.15-3.29,0-12.37-4.25-16.18-6.16h0c-3.44-2.46-6.81-5.1-8.54-7.18-3.49-4.18-4.78-9.9-5.91-14.93-.89-3.9-1.64-7.27-3.33-9.23-1.9-2.22-4.56-3.62-7.62-5.25-3.71-2-7.9-4.18-12-8.47s-6.5-13.28-7.68-19.73Z"/><path class="cls-10" d="M585.44,665.17s-.57,10-5.73,17.68a22.09,22.09,0,0,1-2.48,3.09c-.13.14-.25.27-.39.4-.54-.17-1.07-.34-1.59-.54a45,45,0,0,1-11.09,7.57c-3.08,1.63-5.74,3-7.64,5.25-1.68,2-2.44,5.32-3.31,9.22-1.16,5-2.45,10.75-5.94,14.94a49.68,49.68,0,0,1-8.58,7.2c-3.67,1.92-12.53,6.15-16.17,6.15-3.29,0-12.37-4.25-16.18-6.16h0c-3.44-2.46-6.81-5.1-8.54-7.18-3.49-4.18-4.78-9.9-5.91-14.93-.89-3.9-1.64-7.27-3.33-9.23-1.9-2.22-4.56-3.62-7.62-5.25-3.71-2-7.9-4.18-12-8.47s-6.5-13.28-7.68-19.73h-1.61l1.55-.39,5.79-1.47,9.3,1.86,11.16-.93,8.36.93h6.51l5.59-1.86,8.2,1.86,15-1.86,17.59,1.86,4.62-1.14,2.88-.72,4.3,1.11,2.89.75,10.49-.93,3.71.93,1,.4,2.75,1.1.88.36,1.38-.8Z"/><path class="cls-3" d="M624.08,651.46a36.51,36.51,0,0,1-45.6,35.34c-.56-.14-1.09-.3-1.64-.46s-1.07-.34-1.59-.54a36.57,36.57,0,0,1-21.48-20.63c-.15-.37-.31-.76-.44-1.14a36.49,36.49,0,1,1,70.75-12.57Z"/><path class="cls-13" d="M584.36,648s-3.12-16.45-8.71-22.71c-2.61-2.92-6.78-1.58-9.57,1s-4.6,5.51-2.35,8.48C568.79,641.44,584.36,648,584.36,648Z"/><path class="cls-13" d="M587.77,646.69s9.44-13.83,9.91-22.21c.22-3.91-3.67-5.91-7.47-6.06s-7.15.64-7.67,4.33C581.38,631.07,587.77,646.69,587.77,646.69Z"/><path class="cls-13" d="M591.09,648.21s16.45-3.11,22.71-8.7c2.92-2.61,1.58-6.78-1-9.57s-5.5-4.6-8.48-2.36C597.61,632.65,591.09,648.21,591.09,648.21Z"/><path class="cls-13" d="M592.36,651.63s13.84,9.43,22.21,9.91c3.91.22,5.92-3.68,6.06-7.47s-.64-7.16-4.33-7.67C608,645.24,592.36,651.63,592.36,651.63Z"/><path class="cls-13" d="M590.84,654.94s3.11,16.46,8.7,22.72c2.61,2.92,6.78,1.58,9.57-1s4.61-5.51,2.36-8.48C606.4,661.47,590.84,654.94,590.84,654.94Z"/><path class="cls-13" d="M587.42,656.21s-9.43,13.84-9.91,22.22c-.22,3.91,3.68,5.91,7.48,6.06s7.15-.64,7.66-4.33C593.81,671.83,587.42,656.21,587.42,656.21Z"/><path class="cls-13" d="M584.11,654.69s-16.46,3.12-22.72,8.71c-2.92,2.61-1.58,6.78,1,9.57s5.51,4.6,8.49,2.35C577.58,670.26,584.11,654.69,584.11,654.69Z"/><path class="cls-13" d="M582.84,651.28s-13.84-9.43-22.22-9.91c-3.91-.22-5.91,3.67-6.06,7.47s.64,7.15,4.33,7.67C567.22,657.67,582.84,651.28,582.84,651.28Z"/><path class="cls-14" d="M585.44,665.17s-.57,10-5.73,17.68a22.09,22.09,0,0,1-2.48,3.09c-.13.14-.25.27-.39.4-.54-.17-1.07-.34-1.59-.54a45,45,0,0,1-11.09,7.57c-3.08,1.63-5.74,3-7.64,5.25-1.68,2-2.44,5.32-3.31,9.22-1.16,5-2.45,10.75-5.94,14.94a49.68,49.68,0,0,1-8.58,7.2c-3.67,1.92-12.53,6.15-16.17,6.15-3.29,0-12.37-4.25-16.18-6.16h0c-3.44-2.46-6.81-5.1-8.54-7.18-3.49-4.18-4.78-9.9-5.91-14.93-.89-3.9-1.64-7.27-3.33-9.23-1.9-2.22-4.56-3.62-7.62-5.25-3.71-2-7.9-4.18-12-8.47s-6.5-13.28-7.68-19.73h-1.61l1.55-.39,5.79-1.47,9.3,1.86,11.16-.93,8.36.93h6.51l5.59-1.86,8.2,1.86,15-1.86,17.59,1.86,4.62-1.14,2.88-.72,4.3,1.11,2.89.75,10.49-.93,3.71.93,1,.4,2.75,1.1.88.36,1.38-.8Z"/><path class="cls-6" d="M578.48,686.8c-.06.06-.1.12-.17.18a46.1,46.1,0,0,1-12.76,9c-2.8,1.49-5.22,2.77-6.75,4.56-1.2,1.39-1.91,4.56-2.67,7.92-1.15,5.11-2.6,11.46-6.56,16.21-4.47,5.36-18,13.63-20.15,14.92a6.19,6.19,0,0,0-1.11,3.38c-.12,5.32-.26,13.32-.33,22.35h-10.9c-.08-9-.21-17-.34-22.35a6.26,6.26,0,0,0-1.09-3.38c-2.15-1.29-15.69-9.56-20.17-14.93-4-4.74-5.39-11.09-6.54-16.19-.75-3.36-1.48-6.54-2.68-7.93-1.53-1.79-3.95-3.07-6.76-4.56a46.55,46.55,0,0,1-12.76-9c-7.73-8.05-9.48-28.27-9.55-29.12a1.5,1.5,0,1,1,3-.25c0,.08.27,3.09,1,7.17l-1.55.39h1.61c1.18,6.45,3.48,15.35,7.68,19.73s8.3,6.51,12,8.47c3.06,1.63,5.72,3,7.62,5.25,1.69,2,2.44,5.33,3.33,9.23,1.13,5,2.42,10.75,5.91,14.93,1.73,2.08,5.1,4.72,8.54,7.18h0c3.81,1.91,12.89,6.16,16.18,6.16,3.64,0,12.5-4.23,16.17-6.15a49.68,49.68,0,0,0,8.58-7.2c3.49-4.19,4.78-9.9,5.94-14.94.87-3.9,1.63-7.26,3.31-9.22,1.9-2.22,4.56-3.62,7.64-5.25a45,45,0,0,0,11.09-7.57c.52.2,1,.37,1.59.54S577.92,686.66,578.48,686.8Z"/><path class="cls-6" d="M461.23,665.17h-1.61l1.55-.39Z"/><path class="cls-6" d="M587.87,657.86c-.07.75-1.43,16.41-7,25.68a18.48,18.48,0,0,1-2.41,3.26c-.56-.14-1.09-.3-1.64-.46s-1.07-.34-1.59-.54l.91-.9a17.39,17.39,0,0,0,2.34-3.2c2.56-4.41,4.17-10.51,5.13-15.47l.18-1.06c.31-1.61.52-3.06.68-4.26h0c.27-2,.39-3.24.39-3.29a1.5,1.5,0,0,1,1.61-1.37,1.44,1.44,0,0,1,.74.27A1.47,1.47,0,0,1,587.87,657.86Z"/><path class="cls-15" d="M1360.63,630.72v55a36.49,36.49,0,0,1,0-55Z"/><path class="cls-16" d="M1346.62,658.23a37.88,37.88,0,0,0,14,29.44v-4a35,35,0,0,1,0-50.93v-4A37.9,37.9,0,0,0,1346.62,658.23Z"/><path class="cls-4" d="M1360.63,635.93v5.42A4.59,4.59,0,0,1,1360.63,635.93Z"/><path class="cls-4" d="M1360.63,635v7.26l-.42-.58a5.11,5.11,0,0,1,0-6Z"/><path class="cls-4" d="M1360.63,668.54V681a13.92,13.92,0,0,1-1.22-1.21c-2.6-2.79-3.94-7-1-9.57A14.66,14.66,0,0,1,1360.63,668.54Z"/><path class="cls-4" d="M1360.63,668l-.26.16a16.3,16.3,0,0,0-2.3,1.69,5.3,5.3,0,0,0-1.82,3.77,9.5,9.5,0,0,0,2.78,6.51c.35.36.78.83,1.26,1.25l.34.29.5.44V667.64Zm-.5,11.82c-.14-.13-.25-.26-.36-.37a8.45,8.45,0,0,1-2.52-5.78,4.22,4.22,0,0,1,1.49-3.08,14.55,14.55,0,0,1,1.39-1.08Z"/><path class="cls-4" d="M1360.63,648.62v14.67a20.05,20.05,0,0,1-4.72,0c-3.71-.51-4.48-4-4.34-7.66s2.14-7.7,6.07-7.48A16.38,16.38,0,0,1,1360.63,648.62Z"/><path class="cls-4" d="M1357.67,647.64a5.32,5.32,0,0,0-4,1.39,9.49,9.49,0,0,0-2.63,6.57c-.18,5,1.42,7.71,4.76,8.17a16.11,16.11,0,0,0,2.29.15,24.85,24.85,0,0,0,2.51-.13V648.1A17,17,0,0,0,1357.67,647.64Zm-1.7,15.14c-2.79-.38-4.06-2.72-3.9-7.14a8.47,8.47,0,0,1,2.31-5.87,4.19,4.19,0,0,1,2.94-1.14h.28a14.86,14.86,0,0,1,2.53.37v13.82A18.27,18.27,0,0,1,1356,662.78Z"/><polygon class="cls-9" points="40.87 648.94 0.01 703.46 0.01 648.94 40.87 648.94"/><polygon class="cls-10" points="40.87 647.88 40.09 648.94 35.45 655.19 0.01 655.19 0.01 647.88 40.87 647.88"/><path class="cls-6" d="M49.48,640.3,0,706v-6.63c2.89-3,5.51-6,7.54-8.38l27-35.84,4.72-6.25.78-1.06,7.07-9.39a1.5,1.5,0,0,1,2.4,1.81Z"/><polygon class="cls-9" points="1343.38 84.43 1312.45 43.17 1360.63 43.17 1360.63 107.45 1343.38 84.43"/><path class="cls-9" d="M1360.63,227.66V239.3h-31.34a21.3,21.3,0,0,1,8.09-4c1.71-.51,3.61-1,5.59-1.61l1.5-.43,1.53-.44.16,0,1.38-.41c3.46-1,7-2.15,10.09-3.38l.95-.4C1359.29,228.26,1360,228,1360.63,227.66Z"/><polygon class="cls-10" points="1360.63 42.12 1360.63 49.39 1317.9 49.39 1313.24 43.17 1312.45 42.12 1360.63 42.12"/><path class="cls-6" d="M1360.63,107.32l-17-23c.51.64,4.37,5.35,9.35,10.54,2.37,2.46,5,5,7.62,7.31Z"/><path class="cls-6" d="M1360.63,227.66V239.3h-31.34a21.3,21.3,0,0,1,8.09-4c1.71-.51,3.61-1,5.59-1.61l1.5-.43,1.53-.44.16,0,1.38-.41c3.46-1,7-2.15,10.09-3.38l.95-.4C1359.29,228.26,1360,228,1360.63,227.66Z"/><path class="cls-6" d="M1341.62,233c-1.6.45-3.13.88-4.53,1.3-5.67,1.67-8.37,4.16-8.47,4.27l-1.85,1.73h33.86v-2h-28.07a25.18,25.18,0,0,1,5.1-2.08c1.39-.42,2.91-.85,4.51-1.3,6.13-1.75,13.14-3.73,18.46-6.18v-2.19C1355.35,229.1,1347.76,231.25,1341.62,233Zm4.71-147,0,0c-.73-.87-1.38-1.65-1.92-2.33l-1,.78-.59.44L1360.63,109v-3.36l-4.83-6.53c.45.43.9.87,1.37,1.3v0c1.14,1.06,2.28,2.08,3.45,3.06v-2.64A155.27,155.27,0,0,1,1346.33,86Z"/><path class="cls-6" d="M1360.63,110l-56.75-75.41a1.49,1.49,0,1,1,2.38-1.8l7,9.34.79,1.05,4.68,6.22L1346.3,86l0,0,6.68,8.88,4.16,5.52v0l3.45,4.57Z"/><path class="cls-6" d="M1341.49,232.52c5.92-1.68,13.8-3.92,19.14-6.53v3.32c-5.21,2.37-12,4.3-18.33,6.09-1.59.45-3.11.88-4.5,1.3a28,28,0,0,0-3.06,1.1h25.89v3h-35.12l2.76-2.6a23,23,0,0,1,8.68-4.38C1338.35,233.4,1339.89,233,1341.49,232.52Z"/><path class="cls-17" d="M1360.63,37.42v6.47a6.16,6.16,0,0,1-.79-.72,7.44,7.44,0,0,1-.87-1.05,3.3,3.3,0,0,1-.58-3.39A2.79,2.79,0,0,1,1360.63,37.42Z"/><path class="cls-17" d="M1357.94,38.49a3.62,3.62,0,0,0,.43,3.63,7.11,7.11,0,0,0,.78,1.05,9.87,9.87,0,0,0,1.48,1.37V43.23l-.08-.06a8.5,8.5,0,0,1-1-1.05c-.88-1.15-1.2-2.31-.76-3.15a2.32,2.32,0,0,1,1.81-1v-1A3.3,3.3,0,0,0,1357.94,38.49Z"/><path class="cls-10" d="M1104.82,137c-.29,12.72-1.39,79.32,1.91,86.75,2.44,5.49,18.24,9.23,27.89,12.09a19.41,19.41,0,0,1,7.44,3.72H1059a19.41,19.41,0,0,1,7.44-3.72c9.65-2.86,25.45-6.6,27.89-12.09,3.3-7.43,2.2-74,1.91-86.75a7.57,7.57,0,0,0-1.57-4.48s-15.39-9.18-20-14.76c-6.45-7.73-5.82-20.17-9.24-24.14-3.89-4.53-11.9-5.67-19.58-13.66-7.44-7.76-8.21-20.77-8.21-20.77h125.83s-.76,13-8.2,20.77c-7.68,8-15.69,9.13-19.58,13.66-3.41,4-2.78,16.41-9.24,24.14-4.65,5.58-20,14.76-20,14.76A7.57,7.57,0,0,0,1104.82,137Z"/><path class="cls-10" d="M1104.82,137c-.29,12.72-1.39,79.32,1.91,86.75,2.44,5.49,18.24,9.23,27.89,12.09a19.41,19.41,0,0,1,7.44,3.72H1059a19.41,19.41,0,0,1,7.44-3.72c9.65-2.86,25.45-6.6,27.89-12.09,3.3-7.43,2.2-74,1.91-86.75a7.57,7.57,0,0,0-1.57-4.48s-15.39-9.18-20-14.76c-6.45-7.73-5.82-20.17-9.24-24.14-3.89-4.53-11.9-5.67-19.58-13.66-7.44-7.76-8.21-20.77-8.21-20.77l7.35-1.86,9.3,1.86,11.16-.93,8.37.93h6.5l5.58-1.86,8.21,1.86,15-1.86,17.6,1.86,7.5-1.86,7.18,1.86,10.48-.93,3.72.93,4.65,1.86,3.19-1.86s-.76,13-8.2,20.77c-7.68,8-15.69,9.13-19.58,13.66-3.41,4-2.78,16.41-9.24,24.14-4.65,5.58-20,14.76-20,14.76A7.57,7.57,0,0,0,1104.82,137Z"/><circle class="cls-3" cx="1165.6" cy="45.45" r="36.49"/><path class="cls-13" d="M1162.36,42s-3.12-16.45-8.71-22.71c-2.61-2.92-6.78-1.58-9.57,1s-4.6,5.51-2.35,8.48C1146.79,35.44,1162.36,42,1162.36,42Z"/><path class="cls-13" d="M1165.77,40.69s9.44-13.83,9.91-22.21c.22-3.91-3.67-5.91-7.47-6.06s-7.15.64-7.67,4.33C1159.38,25.07,1165.77,40.69,1165.77,40.69Z"/><path class="cls-13" d="M1169.09,42.21s16.45-3.11,22.71-8.7c2.92-2.61,1.58-6.78-1-9.57s-5.5-4.6-8.48-2.36C1175.61,26.65,1169.09,42.21,1169.09,42.21Z"/><path class="cls-13" d="M1170.36,45.63s13.84,9.43,22.21,9.91c3.91.22,5.92-3.68,6.06-7.47s-.64-7.16-4.33-7.67C1186,39.24,1170.36,45.63,1170.36,45.63Z"/><path class="cls-13" d="M1168.84,48.94s3.11,16.46,8.7,22.72c2.61,2.92,6.78,1.58,9.57-1s4.61-5.51,2.36-8.48C1184.4,55.47,1168.84,48.94,1168.84,48.94Z"/><path class="cls-13" d="M1165.42,50.21s-9.43,13.84-9.91,22.22c-.22,3.91,3.68,5.91,7.48,6.06s7.15-.64,7.66-4.33C1171.81,65.83,1165.42,50.21,1165.42,50.21Z"/><path class="cls-13" d="M1162.11,48.69s-16.46,3.12-22.72,8.71c-2.92,2.61-1.58,6.78,1,9.57s5.51,4.6,8.49,2.35C1155.58,64.26,1162.11,48.69,1162.11,48.69Z"/><path class="cls-13" d="M1160.84,45.28s-13.84-9.43-22.22-9.91c-3.91-.22-5.91,3.67-6.06,7.47s.64,7.15,4.33,7.67C1145.22,51.67,1160.84,45.28,1160.84,45.28Z"/><path class="cls-14" d="M1104.82,137c-.29,12.72-1.39,79.32,1.91,86.75,2.44,5.49,18.24,9.23,27.89,12.09a19.41,19.41,0,0,1,7.44,3.72H1059a19.41,19.41,0,0,1,7.44-3.72c9.65-2.86,25.45-6.6,27.89-12.09,3.3-7.43,2.2-74,1.91-86.75a7.57,7.57,0,0,0-1.57-4.48s-15.39-9.18-20-14.76c-6.45-7.73-5.82-20.17-9.24-24.14-3.89-4.53-11.9-5.67-19.58-13.66-7.44-7.76-8.21-20.77-8.21-20.77l7.35-1.86,9.3,1.86,11.16-.93,8.37.93h6.5l5.58-1.86,8.21,1.86,15-1.86,17.6,1.86,7.5-1.86,7.18,1.86,10.48-.93,3.72.93,4.65,1.86,3.19-1.86s-.76,13-8.2,20.77c-7.68,8-15.69,9.13-19.58,13.66-3.41,4-2.78,16.41-9.24,24.14-4.65,5.58-20,14.76-20,14.76A7.57,7.57,0,0,0,1104.82,137Z"/><path class="cls-7" d="M1117.63,124.62c-1.42.64-13.56,9.24-13.6,10.8-.27,12.17-1.32,81,1.84,88.06,2.33,5.25,17.45,8.84,26.69,11.57a18.67,18.67,0,0,1,7.12,3.56h-78.3a18.67,18.67,0,0,1,7.12-3.56c9.24-2.73,24.36-6.32,26.69-11.57,3.16-7.11,2.11-75.89,1.83-88.06,0-1.56-12.18-10.13-13.59-10.8,0,0,12.67,6.51,17.1,6.51C1105.4,131.13,1117.63,124.62,1117.63,124.62Z"/><path class="cls-8" d="M1164.37,51.73s-1.69,20.45-9.13,28.21c-7.68,8-15.69,9.13-19.58,13.66-3.41,4-2.78,16.41-9.24,24.14-4.65,5.58-20,14.76-20,14.76a7.57,7.57,0,0,0-1.57,4.48c-.29,12.72-1.39,79.32,1.91,86.75,2.44,5.49,18.24,9.23,27.89,12.09a19.41,19.41,0,0,1,7.44,3.72H1059a19.41,19.41,0,0,1,7.44-3.72c9.65-2.86,25.45-6.6,27.89-12.09,3.3-7.43,2.2-74,1.91-86.75a7.57,7.57,0,0,0-1.57-4.48s-15.39-9.18-20-14.76c-6.45-7.73-5.82-20.17-9.24-24.14-3.89-4.53-11.9-5.67-19.58-13.66-7.44-7.76-9.14-28.21-9.14-28.21"/><path class="cls-2" d="M19.67,240.08H0v-7.4C4.07,233.91,8.16,235,11.54,236,17.08,237.65,19.67,240.08,19.67,240.08Z"/><polygon class="cls-2" points="6.63 83.57 0.01 92.24 0.01 42.94 37.66 42.94 6.63 83.57"/><path class="cls-6" d="M6,83.28,0,91.43V90.27C3.3,86.61,5.64,83.77,6,83.28Z"/><path class="cls-6" d="M19.67,240.08H0v-7.4C4.07,233.91,8.16,235,11.54,236,17.08,237.65,19.67,240.08,19.67,240.08Z"/><path class="cls-6" d="M6.63,83.57l-1.31-1c-.58.72-1.27,1.55-2.05,2.46-1,1.14-2.06,2.41-3.27,3.75v4.33l6.91-9.32ZM20.34,239.35c-.11-.11-2.82-2.61-8.52-4.29-1.4-.42-2.93-.85-4.55-1.31C5,233.1,2.5,232.39,0,231.63v2.1c2.28.69,4.56,1.33,6.73,2,1.59.45,3.12.88,4.52,1.3a25.44,25.44,0,0,1,5.15,2.1H0v2H22.19Z"/><path class="cls-6" d="M23.44,241.58H0v-3H14.23a26.24,26.24,0,0,0-3.11-1.12c-1.41-.42-2.93-.85-4.53-1.3-2.17-.62-4.4-1.25-6.59-1.91v-3.14c2.59.79,5.15,1.52,7.42,2.16,1.6.46,3.13.89,4.54,1.31a23.11,23.11,0,0,1,8.73,4.4Z"/><path class="cls-6" d="M45.21,34.3,0,94.37v-5L3.27,85,35,42.94l7.85-10.45a1.5,1.5,0,0,1,2.4,1.81Z"/><path class="cls-9" d="M593.81,236c5.54,1.63,8.12,4.06,8.12,4.06h-89.3s2.58-2.43,8.12-4.06c10.53-3.12,27.78-7.21,30.44-13.2,3.6-8.1,2.41-86.56,2.09-100.44a8.38,8.38,0,0,0-1.71-4.89L495.7,42.94H618.86L563,117.49a8.38,8.38,0,0,0-1.71,4.89c-.32,13.88-1.51,92.34,2.09,100.44C566,228.81,583.28,232.9,593.81,236Z"/><polygon class="cls-10" points="501.18 49.19 495.7 41.88 618.86 41.88 613.45 49.19 501.18 49.19"/><path class="cls-7" d="M593.81,236c5.54,1.63,8.12,4.06,8.12,4.06h-89.3s2.58-2.43,8.12-4.06c10.53-3.12,27.78-7.21,30.44-13.2,3.6-8.1,2.41-86.56,2.09-100.44a8.38,8.38,0,0,0-1.71-4.89L527,84.25s20.56,25.47,30.28,25.45,31.09-26.51,31.09-26.51L563,117.49a8.38,8.38,0,0,0-1.71,4.89c-.32,13.88-1.51,92.34,2.09,100.44C566,228.81,583.28,232.9,593.81,236Z"/><path class="cls-8" d="M626.28,33.39,563,117.49a8.38,8.38,0,0,0-1.71,4.89c-.32,13.88-1.51,92.34,2.09,100.44,2.66,6,19.91,10.08,30.44,13.2,5.54,1.63,8.12,4.06,8.12,4.06h-89.3s2.58-2.43,8.12-4.06c10.53-3.12,27.78-7.21,30.44-13.2,3.6-8.1,2.41-86.56,2.09-100.44a8.38,8.38,0,0,0-1.71-4.89l-63.29-84.1"/><ellipse class="cls-11" cx="565.75" cy="42.7" rx="6.66" ry="3.7" transform="translate(23.7 210.27) rotate(-21.5)"/><path class="cls-12" d="M561.38,44.89a10.27,10.27,0,0,1,4.3-1.74c.74-.15,1.48-.23,2.22-.35a2.2,2.2,0,0,0,1.65-.91c.26-.41-.39-.78-.64-.38-.35.56-1.19.57-1.77.65s-1.46.21-2.18.38a10.3,10.3,0,0,0-4,1.7c-.38.29,0,.94.38.65Z"/><ellipse class="cls-11" cx="547.73" cy="41.64" rx="3.7" ry="6.66" transform="translate(250.62 503.66) rotate(-61.6)"/><path class="cls-12" d="M545.38,41.83a10.08,10.08,0,0,1,3.94,2.06c.57.45,1.11.93,1.65,1.42a2.43,2.43,0,0,0,1.88.84c.47-.06.48-.81,0-.75-.75.1-1.31-.59-1.81-1S550,43.42,549.38,43a10.26,10.26,0,0,0-3.8-1.88c-.47-.11-.67.62-.2.72Z"/><ellipse class="cls-11" cx="556.06" cy="39.54" rx="6.98" ry="4.33" transform="translate(5.33 125.94) rotate(-12.98)"/><path class="cls-12" d="M561.12,38.07a9.67,9.67,0,0,0-4.31.8c-.66.27-1.3.58-1.94.91s-1.49,1-2.2.67c-.43-.2-.81.44-.38.65a2.18,2.18,0,0,0,2-.17c.7-.34,1.37-.73,2.08-1.06a9.76,9.76,0,0,1,4.74-1c.48,0,.47-.71,0-.75Z"/><ellipse class="cls-11" cx="579.54" cy="238.82" rx="6.98" ry="4.33" transform="translate(-38.84 136.31) rotate(-12.98)"/><path class="cls-12" d="M584.59,237.36a9.54,9.54,0,0,0-4.31.8,19.87,19.87,0,0,0-1.93.9c-.61.32-1.5,1-2.21.68-.43-.21-.81.44-.37.64a2.15,2.15,0,0,0,2-.17c.69-.34,1.36-.73,2.07-1.06a9.75,9.75,0,0,1,4.74-1c.48,0,.48-.72,0-.75Z"/><ellipse class="cls-11" cx="591.24" cy="240.95" rx="3.9" ry="6.65" transform="translate(137.96 690.57) rotate(-66.94)"/><path class="cls-12" d="M596,242.67a10,10,0,0,0-4-1.87c-.72-.18-1.46-.31-2.2-.42-.58-.09-1.41-.11-1.73-.69-.23-.43-.88-.05-.65.38A2.05,2.05,0,0,0,589,241c.75.15,1.51.23,2.26.39a9.8,9.8,0,0,1,4.27,1.82c.37.3.9-.22.53-.53Z"/><path class="cls-15" d="M284,137c-.29,12.72-1.39,79.32,1.91,86.75,2.44,5.49,18.24,9.23,27.89,12.09a19.41,19.41,0,0,1,7.44,3.72H238.14a19.41,19.41,0,0,1,7.44-3.72c9.65-2.86,25.45-6.6,27.89-12.09,3.3-7.43,2.2-74,1.91-86.75a7.57,7.57,0,0,0-1.57-4.48s-15.38-9.18-20-14.76C247.33,110,248,97.57,244.55,93.6c-3.9-4.53-11.91-5.67-19.59-13.66-7.44-7.76-8.2-20.77-8.2-20.77H342.59s-.77,13-8.21,20.77c-7.67,8-15.69,9.13-19.57,13.66-3.42,4-2.79,16.41-9.25,24.14-4.65,5.58-20,14.76-20,14.76A7.57,7.57,0,0,0,284,137Z"/><circle class="cls-3" cx="214.57" cy="51.03" r="36.49"/><path class="cls-13" d="M211.33,47.54s-3.11-16.45-8.7-22.71c-2.61-2.93-6.78-1.59-9.57,1s-4.6,5.5-2.36,8.48C195.77,41,211.33,47.54,211.33,47.54Z"/><path class="cls-13" d="M214.75,46.27s9.43-13.84,9.91-22.21c.22-3.92-3.68-5.92-7.47-6.06s-7.16.63-7.67,4.33C208.36,30.65,214.75,46.27,214.75,46.27Z"/><path class="cls-13" d="M218.06,47.79s16.46-3.11,22.72-8.7c2.92-2.61,1.58-6.78-1-9.57s-5.51-4.61-8.48-2.36C224.59,32.23,218.06,47.79,218.06,47.79Z"/><path class="cls-13" d="M219.33,51.21s13.84,9.43,22.22,9.91c3.91.22,5.91-3.68,6.06-7.48S247,46.49,243.28,46C235,44.82,219.33,51.21,219.33,51.21Z"/><path class="cls-13" d="M217.82,54.52s3.11,16.46,8.7,22.72c2.61,2.92,6.78,1.58,9.57-1s4.6-5.51,2.36-8.49C233.38,61.05,217.82,54.52,217.82,54.52Z"/><path class="cls-13" d="M214.4,55.79S205,69.63,204.49,78c-.22,3.91,3.67,5.91,7.47,6.06s7.15-.64,7.67-4.33C220.79,71.41,214.4,55.79,214.4,55.79Z"/><path class="cls-13" d="M211.08,54.27S194.63,57.39,188.37,63c-2.92,2.61-1.58,6.78,1,9.56s5.51,4.61,8.48,2.36C204.56,69.84,211.08,54.27,211.08,54.27Z"/><path class="cls-13" d="M209.82,50.86S196,41.42,187.6,41c-3.91-.22-5.91,3.67-6.06,7.47s.64,7.15,4.33,7.67C194.19,57.25,209.82,50.86,209.82,50.86Z"/><path class="cls-10" d="M340.88,67.85c2.23-5.89,1.71-9.61,1.71-9.61s-9.13-.93-12.17-.93c-3.89,0-11.67.93-15.57.93S303,56.38,299.09,56.38s-11.39,1.86-15.19,1.86c-3.33,0-8.14-1.86-11.47-1.86-2.55,0-9.51,1.86-12.07,1.86-3,0-9-.93-12-.93-3.61,0-10.83.93-14.45.93-1.91,0-5.73-.93-7.64-.93-2.39,0-9.56.93-9.56.93s-.09,2.79,1.7,9.61Z"/><g class="cls-18"><path class="cls-15" d="M284,137c-.29,12.72-1.39,79.32,1.91,86.75,2.44,5.49,18.24,9.23,27.89,12.09a19.41,19.41,0,0,1,7.44,3.72H238.14a19.41,19.41,0,0,1,7.44-3.72c9.65-2.86,25.45-6.6,27.89-12.09,3.3-7.43,2.2-74,1.91-86.75a7.57,7.57,0,0,0-1.57-4.48s-15.38-9.18-20-14.76C247.33,110,248,97.57,244.55,93.6c-3.9-4.53-11.91-5.67-19.59-13.66-7.44-7.76-8.2-20.77-8.2-20.77H342.59s-.77,13-8.21,20.77c-7.67,8-15.69,9.13-19.57,13.66-3.42,4-2.79,16.41-9.25,24.14-4.65,5.58-20,14.76-20,14.76A7.57,7.57,0,0,0,284,137Z"/><path class="cls-10" d="M340.88,67.85c2.23-5.89,1.71-9.61,1.71-9.61s-9.13-.93-12.17-.93c-3.89,0-11.67.93-15.57.93S303,56.38,299.09,56.38s-11.39,1.86-15.19,1.86c-3.33,0-8.14-1.86-11.47-1.86-2.55,0-9.51,1.86-12.07,1.86-3,0-9-.93-12-.93-3.61,0-10.83.93-14.45.93-1.91,0-5.73-.93-7.64-.93-2.39,0-9.56.93-9.56.93s-.09,2.79,1.7,9.61Z"/></g><path class="cls-7" d="M296.77,124.62c-1.42.64-13.56,9.24-13.59,10.8-.28,12.17-1.33,81,1.83,88.06,2.33,5.25,17.45,8.84,26.69,11.57a18.67,18.67,0,0,1,7.12,3.56h-78.3a18.67,18.67,0,0,1,7.12-3.56c9.24-2.73,24.36-6.32,26.69-11.57,3.16-7.11,2.11-75.89,1.84-88.06,0-1.56-12.19-10.13-13.6-10.8,0,0,12.67,6.51,17.1,6.51C284.54,131.13,296.77,124.62,296.77,124.62Z"/><path class="cls-8" d="M343.52,55.45s-1.7,16.73-9.14,24.49c-7.67,8-15.69,9.13-19.57,13.66-3.42,4-2.79,16.41-9.25,24.14-4.65,5.58-20,14.76-20,14.76A7.57,7.57,0,0,0,284,137c-.29,12.72-1.39,79.32,1.91,86.75,2.44,5.49,18.24,9.23,27.89,12.09a19.41,19.41,0,0,1,7.44,3.72H238.14a19.41,19.41,0,0,1,7.44-3.72c9.65-2.86,25.45-6.6,27.89-12.09,3.3-7.43,2.2-74,1.91-86.75a7.57,7.57,0,0,0-1.57-4.48s-15.38-9.18-20-14.76C247.33,110,248,97.57,244.55,93.6c-3.9-4.53-11.91-5.67-19.59-13.66-7.44-7.76-9.13-24.49-9.13-24.49"/><path class="cls-2" d="M720.54,539c5.54,1.63,8.12,4.06,8.12,4.06h-89.3s2.58-2.43,8.12-4.06c10.53-3.12,27.78-7.21,30.44-13.2,3.61-8.1,2.41-86.56,2.09-100.44a8.38,8.38,0,0,0-1.71-4.89l-56.93-74.55H746.65l-56.93,74.55a8.38,8.38,0,0,0-1.71,4.89c-.32,13.88-1.51,92.34,2.09,100.44C692.76,531.81,710,535.9,720.54,539Z"/><path class="cls-3" d="M616.52,396.16a41.62,41.62,0,0,1,33.53-76.07c.85.32,1.68.68,2.48,1.05"/><path class="cls-4" d="M633.56,355l-.71-.67c-.58-.54-14.09-13.47-16.78-22.71-1.07-3.69,1-6.61,6.27-8.73a10.86,10.86,0,0,1,8-.33,5.93,5.93,0,0,1,3.26,3.45c3.43,9,.24,27.25.09,28Z"/><path class="cls-4" d="M651.1,324.13l-14.27,29.73c0-1.92-.26-19.63,4.2-27.77C642.82,322.84,646.2,322.18,651.1,324.13Z"/><path class="cls-4" d="M631.83,364.28,618,393.19a10.22,10.22,0,0,1-5-5,5.91,5.91,0,0,1,.13-4.75C616.46,375.86,628.27,366.86,631.83,364.28Z"/><path class="cls-4" d="M631.27,360.68l-.67.71c-.54.58-13.47,14.08-22.7,16.77a5.58,5.58,0,0,1-4.08-.24c-1.84-.88-3.39-2.9-4.66-6a10.86,10.86,0,0,1-.33-8,6,6,0,0,1,3.45-3.26c9-3.43,27.25-.24,28-.09Z"/><path class="cls-4" d="M631.25,357.37l-1,0c-.77,0-18.38.41-27.13-3.79l-.78-.4c-3.36-1.85-4-5.42-1.75-10.6a10.8,10.8,0,0,1,5.45-5.92,5.91,5.91,0,0,1,4.75.13c8.75,3.92,19.43,19.1,19.88,19.75Z"/><path class="cls-5" d="M720.54,539c5.54,1.63,8.12,4.06,8.12,4.06h-89.3s2.58-2.43,8.12-4.06c10.53-3.12,27.78-7.21,30.44-13.2,3.61-8.1,2.41-86.56,2.09-100.44a8.38,8.38,0,0,0-1.71-4.89l-56.93-74.55H746.65l-56.93,74.55a8.38,8.38,0,0,0-1.71,4.89c-.32,13.88-1.51,92.34,2.09,100.44C692.76,531.81,710,535.9,720.54,539Z"/><path class="cls-7" d="M720.54,539c5.54,1.63,8.12,4.06,8.12,4.06h-89.3s2.58-2.43,8.12-4.06c10.53-3.12,27.78-7.21,30.44-13.2,3.61-8.1,2.41-86.56,2.09-100.44a8.38,8.38,0,0,0-1.71-4.89l-24.57-33.24S674.29,412.72,684,412.7s31.09-26.51,31.09-26.51l-25.38,34.3a8.38,8.38,0,0,0-1.71,4.89c-.32,13.88-1.51,92.34,2.09,100.44C692.76,531.81,710,535.9,720.54,539Z"/><path class="cls-8" d="M753,336.39l-63.29,84.1a8.38,8.38,0,0,0-1.71,4.89c-.32,13.88-1.51,92.34,2.09,100.44,2.66,6,19.91,10.08,30.44,13.2,5.54,1.63,8.12,4.06,8.12,4.06h-89.3s2.58-2.43,8.12-4.06c10.53-3.12,27.78-7.21,30.44-13.2,3.61-8.1,2.41-86.56,2.09-100.44a8.38,8.38,0,0,0-1.71-4.89L615,336.39"/><path class="cls-9" d="M1302.81,539c5.54,1.63,8.12,4.06,8.12,4.06h-89.3s2.58-2.43,8.12-4.06c10.53-3.12,27.78-7.21,30.44-13.2,3.6-8.1,2.41-86.56,2.09-100.44a8.38,8.38,0,0,0-1.71-4.89l-55.87-74.55h123.16L1272,420.49a8.38,8.38,0,0,0-1.71,4.89c-.32,13.88-1.51,92.34,2.09,100.44C1275,531.81,1292.28,535.9,1302.81,539Z"/><polygon class="cls-10" points="1210.18 352.19 1204.7 344.88 1327.86 344.88 1322.45 352.19 1210.18 352.19"/><path class="cls-7" d="M1302.81,539c5.54,1.63,8.12,4.06,8.12,4.06h-89.3s2.58-2.43,8.12-4.06c10.53-3.12,27.78-7.21,30.44-13.2,3.6-8.1,2.41-86.56,2.09-100.44a8.38,8.38,0,0,0-1.71-4.89L1236,387.25s20.56,25.47,30.28,25.45,31.09-26.51,31.09-26.51L1272,420.49a8.38,8.38,0,0,0-1.71,4.89c-.32,13.88-1.51,92.34,2.09,100.44C1275,531.81,1292.28,535.9,1302.81,539Z"/><path class="cls-8" d="M1335.28,336.39,1272,420.49a8.38,8.38,0,0,0-1.71,4.89c-.32,13.88-1.51,92.34,2.09,100.44,2.66,6,19.91,10.08,30.44,13.2,5.54,1.63,8.12,4.06,8.12,4.06h-89.3s2.58-2.43,8.12-4.06c10.53-3.12,27.78-7.21,30.44-13.2,3.6-8.1,2.41-86.56,2.09-100.44a8.38,8.38,0,0,0-1.71-4.89l-63.29-84.1"/><ellipse class="cls-11" cx="1274.75" cy="345.7" rx="6.66" ry="3.7" transform="translate(-38.01 491.14) rotate(-21.5)"/><path class="cls-12" d="M1270.38,347.89a10.27,10.27,0,0,1,4.3-1.74c.74-.15,1.48-.23,2.22-.35a2.2,2.2,0,0,0,1.65-.91c.26-.41-.39-.78-.64-.38-.35.56-1.19.57-1.77.65-.73.1-1.46.21-2.18.38a10.3,10.3,0,0,0-4,1.7c-.38.29,0,.94.38.65Z"/><ellipse class="cls-11" cx="1256.73" cy="344.64" rx="3.7" ry="6.66" transform="translate(355.91 1286.27) rotate(-61.6)"/><path class="cls-12" d="M1254.38,344.83a10.08,10.08,0,0,1,3.94,2.06c.57.45,1.11.93,1.65,1.42a2.43,2.43,0,0,0,1.88.84c.47-.06.48-.81,0-.75-.75.1-1.31-.59-1.81-1s-1.08-.95-1.66-1.38a10.26,10.26,0,0,0-3.8-1.88c-.47-.11-.67.62-.2.72Z"/><ellipse class="cls-11" cx="1265.06" cy="342.54" rx="6.98" ry="4.33" transform="translate(-44.62 292.97) rotate(-12.98)"/><path class="cls-12" d="M1270.12,341.07a9.67,9.67,0,0,0-4.31.8c-.66.27-1.3.58-1.94.91s-1.49,1-2.2.67c-.43-.2-.81.44-.38.65a2.18,2.18,0,0,0,2-.17c.7-.34,1.37-.73,2.08-1.06a9.76,9.76,0,0,1,4.74-1.05c.48,0,.47-.71,0-.75Z"/><ellipse class="cls-11" cx="1288.54" cy="541.82" rx="6.98" ry="4.33" transform="translate(-88.79 303.34) rotate(-12.98)"/><path class="cls-12" d="M1293.59,540.36a9.54,9.54,0,0,0-4.31.8,19.87,19.87,0,0,0-1.93.9c-.61.32-1.5,1-2.21.68-.43-.21-.81.44-.37.64a2.15,2.15,0,0,0,2-.17c.69-.34,1.36-.73,2.07-1.06a9.75,9.75,0,0,1,4.74-1c.48,0,.48-.72,0-.75Z"/><ellipse class="cls-11" cx="1300.24" cy="543.95" rx="3.9" ry="6.65" transform="translate(290.46 1527.23) rotate(-66.94)"/><path class="cls-12" d="M1305,545.67a10,10,0,0,0-4-1.87c-.72-.18-1.46-.31-2.2-.42-.58-.09-1.41-.11-1.73-.69s-.88-.05-.65.38a2.05,2.05,0,0,0,1.48.92c.75.15,1.51.23,2.26.39a9.8,9.8,0,0,1,4.27,1.82c.37.3.9-.22.53-.53Z"/><path class="cls-9" d="M423.22,538.9c5.62,1.65,8.23,4.11,8.23,4.11H341s2.61-2.46,8.23-4.11c10.66-3.16,28.14-7.3,30.83-13.36,3.65-8.22,2.43-87.68,2.12-101.74a8.45,8.45,0,0,0-1.74-4.95l-56.58-75.51H448.6L392,418.85a8.52,8.52,0,0,0-1.74,4.95c-.31,14.06-1.53,93.52,2.12,101.74C395.08,531.6,412.56,535.74,423.22,538.9Z"/><polygon class="cls-10" points="329.4 349.67 323.86 342.27 448.6 342.27 443.12 349.67 329.4 349.67"/><path class="cls-7" d="M423.22,538.9c5.62,1.65,8.23,4.11,8.23,4.11H341s2.61-2.46,8.23-4.11c10.66-3.16,28.14-7.3,30.83-13.36,3.65-8.22,2.43-87.68,2.12-101.74a8.45,8.45,0,0,0-1.74-4.95l-24.88-33.66S376.38,411,386.23,411s31.48-26.85,31.48-26.85L392,418.85a8.52,8.52,0,0,0-1.74,4.95c-.31,14.06-1.53,93.52,2.12,101.74C395.08,531.6,412.56,535.74,423.22,538.9Z"/><path class="cls-8" d="M456.11,333.68,392,418.85a8.52,8.52,0,0,0-1.74,4.95c-.31,14.06-1.53,93.52,2.12,101.74,2.69,6.06,20.17,10.2,30.83,13.36,5.62,1.65,8.23,4.11,8.23,4.11H341s2.61-2.46,8.23-4.11c10.66-3.16,28.14-7.3,30.83-13.36,3.65-8.22,2.43-87.68,2.12-101.74a8.45,8.45,0,0,0-1.74-4.95l-64.1-85.17"/><ellipse class="cls-11" cx="394.81" cy="343.1" rx="6.75" ry="3.75" transform="translate(-98.26 168.53) rotate(-21.5)"/><path class="cls-12" d="M390.37,345.32a10.62,10.62,0,0,1,4.36-1.77c.75-.14,1.5-.23,2.25-.35a2.21,2.21,0,0,0,1.67-.92c.26-.41-.39-.78-.65-.38-.35.57-1.2.58-1.79.66s-1.48.22-2.21.38a10.64,10.64,0,0,0-4,1.73c-.38.29,0,.94.38.65Z"/><ellipse class="cls-11" cx="376.55" cy="342.03" rx="3.75" ry="6.75" transform="translate(-103.4 510.62) rotate(-61.6)"/><path class="cls-12" d="M374.17,342.22a10.23,10.23,0,0,1,4,2.08c.58.46,1.12.95,1.67,1.44a2.48,2.48,0,0,0,1.9.86c.47-.07.47-.82,0-.75-.76.1-1.33-.6-1.84-1.06s-1.09-1-1.68-1.39a10.29,10.29,0,0,0-3.85-1.9c-.47-.11-.67.61-.2.72Z"/><ellipse class="cls-11" cx="384.99" cy="339.9" rx="7.07" ry="4.39" transform="translate(-66.52 95.18) rotate(-12.98)"/><path class="cls-12" d="M390.11,338.42a9.9,9.9,0,0,0-4.36.81c-.67.27-1.32.59-2,.92s-1.52,1-2.23.68c-.44-.2-.82.44-.38.65a2.22,2.22,0,0,0,2-.17c.71-.35,1.39-.75,2.1-1.08a10,10,0,0,1,4.8-1.06c.48,0,.48-.71,0-.75Z"/><ellipse class="cls-11" cx="407.22" cy="541.73" rx="7.07" ry="4.39" transform="translate(-111.3 105.34) rotate(-12.98)"/><path class="cls-12" d="M412.34,540.26a9.62,9.62,0,0,0-4.36.81,20.54,20.54,0,0,0-2,.92c-.61.32-1.52,1-2.23.68-.44-.21-.82.44-.38.65a2.22,2.22,0,0,0,2-.18c.7-.35,1.38-.74,2.1-1.07a9.78,9.78,0,0,1,4.8-1.06c.48,0,.48-.72,0-.75Z"/><ellipse class="cls-11" cx="419.08" cy="543.89" rx="3.95" ry="6.73" transform="translate(-245.5 716.45) rotate(-66.94)"/><path class="cls-12" d="M423.9,545.64a10,10,0,0,0-4-1.89c-.74-.18-1.48-.32-2.23-.43-.59-.09-1.43-.11-1.76-.7-.23-.43-.88,0-.64.37a2,2,0,0,0,1.49.94c.76.15,1.53.23,2.29.39a10,10,0,0,1,4.32,1.85c.37.3.91-.22.53-.53Z"/><path class="cls-10" d="M124.42,361s-.59,10-5.75,17.68a22.69,22.69,0,0,1-2.46,3.09l-.4.4c-7.55,7.64-15.37,8.81-19.17,13.26-3.41,4-2.8,16.41-9.24,24.14-3.81,4.56-14.78,11.53-18.67,13.92l-1.38.84a4.76,4.76,0,0,0-.47.73,7.51,7.51,0,0,0-1.1,3.75c-.29,12.72-1.38,79.32,1.91,86.75,1,2.17,4,4.07,8,5.75l.08,0c6,2.55,14,4.59,19.84,6.31l.68.21a18.89,18.89,0,0,1,6.75,3.51H20a18.9,18.9,0,0,1,6.73-3.49l.72-.23c5.8-1.72,13.83-3.76,19.83-6.31l.08,0c4-1.68,7-3.58,8-5.75,3.3-7.43,2.21-74,1.92-86.75a7.57,7.57,0,0,0-1.06-3.73c-.16-.26-.33-.51-.5-.75,0,0-.55-.32-1.46-.88-3.94-2.44-14.8-9.35-18.59-13.88-6.43-7.73-5.82-20.17-9.22-24.14-3.9-4.53-11.9-5.66-19.59-13.66C3.19,378,1.15,373,0,368.86V361Z"/><path class="cls-10" d="M124.42,361s-.59,10-5.75,17.68a22.69,22.69,0,0,1-2.46,3.09l-.4.4c-7.55,7.64-15.37,8.81-19.17,13.26-3.41,4-2.8,16.41-9.24,24.14-3.81,4.56-14.78,11.53-18.67,13.92l-1.38.84a4.76,4.76,0,0,0-.47.73,7.51,7.51,0,0,0-1.1,3.75c-.29,12.72-1.38,79.32,1.91,86.75,1,2.17,4,4.07,8,5.75l.08,0c6,2.55,14,4.59,19.84,6.31l.68.21a18.89,18.89,0,0,1,6.75,3.51H20a18.9,18.9,0,0,1,6.73-3.49l.72-.23c5.8-1.72,13.83-3.76,19.83-6.31l.08,0c4-1.68,7-3.58,8-5.75,3.3-7.43,2.21-74,1.92-86.75a7.57,7.57,0,0,0-1.06-3.73c-.16-.26-.33-.51-.5-.75,0,0-.55-.32-1.46-.88-3.94-2.44-14.8-9.35-18.59-13.88-6.43-7.73-5.82-20.17-9.22-24.14-3.9-4.53-11.9-5.66-19.59-13.66C3.19,378,1.15,373,0,368.86v-8.24l.15,0,5.79-1.47L15.23,361l11.16-.93,8.36.93h6.51l5.58-1.86L55.05,361l15-1.86L87.69,361l4.6-1.14,2.9-.72,4.29,1.11,2.89.75,10.48-.93,3.72.93,1,.4,2.76,1.11.88.35,1.38-.8Z"/><circle class="cls-3" cx="126.57" cy="347.26" r="36.49"/><path class="cls-13" d="M123.33,343.77s-3.12-16.45-8.71-22.71c-2.61-2.93-6.78-1.59-9.57,1s-4.6,5.5-2.35,8.48C107.76,337.25,123.33,343.77,123.33,343.77Z"/><path class="cls-13" d="M126.74,342.5s9.43-13.84,9.91-22.21c.22-3.92-3.67-5.92-7.47-6.06s-7.15.63-7.67,4.33C120.35,326.88,126.74,342.5,126.74,342.5Z"/><path class="cls-13" d="M130.06,344s16.45-3.11,22.71-8.7c2.92-2.61,1.58-6.78-1-9.57s-5.51-4.61-8.48-2.36C136.58,328.46,130.06,344,130.06,344Z"/><path class="cls-13" d="M131.32,347.44s13.84,9.43,22.22,9.91c3.91.22,5.91-3.68,6.06-7.48s-.64-7.15-4.33-7.66C147,341.05,131.32,347.44,131.32,347.44Z"/><path class="cls-13" d="M129.81,350.75s3.11,16.46,8.7,22.72c2.61,2.92,6.78,1.58,9.57-1s4.6-5.51,2.36-8.49C145.37,357.28,129.81,350.75,129.81,350.75Z"/><path class="cls-13" d="M126.39,352s-9.43,13.84-9.91,22.22c-.22,3.91,3.68,5.91,7.47,6.06s7.16-.64,7.67-4.33C132.78,367.64,126.39,352,126.39,352Z"/><path class="cls-13" d="M123.08,350.5s-16.46,3.12-22.72,8.71c-2.92,2.61-1.58,6.78,1,9.56s5.51,4.61,8.48,2.36C116.55,366.07,123.08,350.5,123.08,350.5Z"/><path class="cls-13" d="M121.81,347.09s-13.84-9.44-22.22-9.91c-3.91-.22-5.91,3.67-6.06,7.47s.64,7.15,4.33,7.67C106.18,353.48,121.81,347.09,121.81,347.09Z"/><path class="cls-14" d="M124.42,361s-.59,10-5.75,17.68a22.69,22.69,0,0,1-2.46,3.09l-.4.4c-7.55,7.64-15.37,8.81-19.17,13.26-3.41,4-2.8,16.41-9.24,24.14-3.81,4.56-14.78,11.53-18.67,13.92l-1.38.84a4.76,4.76,0,0,0-.47.73,7.51,7.51,0,0,0-1.1,3.75c-.29,12.72-1.38,79.32,1.91,86.75,1,2.17,4,4.07,8,5.75l.08,0c6,2.55,14,4.59,19.84,6.31l.68.21a18.89,18.89,0,0,1,6.75,3.51H20a18.9,18.9,0,0,1,6.73-3.49l.72-.23c5.8-1.72,13.83-3.76,19.83-6.31l.08,0c4-1.68,7-3.58,8-5.75,3.3-7.43,2.21-74,1.92-86.75a7.57,7.57,0,0,0-1.06-3.73c-.16-.26-.33-.51-.5-.75,0,0-.55-.32-1.46-.88-3.94-2.44-14.8-9.35-18.59-13.88-6.43-7.73-5.82-20.17-9.22-24.14-3.9-4.53-11.9-5.66-19.59-13.66C3.19,378,1.15,373,0,368.86v-8.24l.15,0,5.79-1.47L15.23,361l11.16-.93,8.36.93h6.51l5.58-1.86L55.05,361l15-1.86L87.69,361l4.6-1.14,2.9-.72,4.29,1.11,2.89.75,10.48-.93,3.72.93,1,.4,2.76,1.11.88.35,1.38-.8Z"/><path class="cls-7" d="M78.59,426.43c-1.41.64-13.55,9.24-13.59,10.79-.27,12.18-1.32,81,1.84,88.07,2.33,5.25,17.45,8.84,26.69,11.57a18.67,18.67,0,0,1,7.11,3.56H22.35a18.67,18.67,0,0,1,7.12-3.56c9.23-2.73,24.36-6.32,26.69-11.57,3.16-7.11,2.11-75.89,1.83-88.07,0-1.55-12.18-10.12-13.59-10.79,0,0,12.67,6.51,17.1,6.51C66.37,432.94,78.59,426.43,78.59,426.43Z"/><path class="cls-6" d="M126.83,353.67c-.06.75-1.41,16.41-7,25.67a19.16,19.16,0,0,1-2.43,3.27,1.29,1.29,0,0,1-.16.18,46.25,46.25,0,0,1-12.76,9c-2.79,1.49-5.22,2.77-6.75,4.55-1.2,1.4-1.92,4.57-2.68,7.93-1.15,5.1-2.59,11.46-6.55,16.2-4.47,5.37-18,13.64-20.15,14.93a6.11,6.11,0,0,0-1.11,3.38c-.46,20.27-1.11,79.58,1.79,86.11C70.9,529,83.49,532.62,91.84,535c1.47.42,2.89.82,4.17,1.2,5.37,1.58,7.95,4,8,4.07l2.76,2.59H16.19l2.75-2.59c.1-.11,2.69-2.49,8-4.07l4.18-1.2c8.33-2.37,20.94-6,22.76-10.06,2.9-6.53,2.25-65.84,1.79-86.11a6,6,0,0,0-1.11-3.38c-2.12-1.29-15.68-9.56-20.14-14.93-4-4.74-5.4-11.09-6.54-16.2-.76-3.36-1.48-6.53-2.69-7.92-1.54-1.79-4-3.07-6.75-4.56a46.57,46.57,0,0,1-12.77-9C3.25,380.22,1.4,376.42,0,372.4V359.8c0,.26.09.52.15.79l.06.39c1.17,6.45,3.46,15.35,7.67,19.73s8.31,6.51,12,8.47c3.07,1.63,5.71,3,7.62,5.25,1.68,2,2.45,5.33,3.32,9.22,1.15,5,2.43,10.75,5.92,14.94,2.66,3.18,9.09,7.68,13.89,10.81,3.23,2.1,5.7,3.59,5.77,3.62l.25.15.17.23a9.1,9.1,0,0,1,1.88,5.35c0,.79,1.75,78.88-2,87.4-2.23,5-12.07,8.14-24.69,11.73-1.47.41-2.86.81-4.15,1.19a23.62,23.62,0,0,0-2.26.78H97.42c-.68-.27-1.43-.54-2.25-.78-1.29-.38-2.69-.78-4.15-1.19-12.63-3.59-22.48-6.73-24.7-11.73-3.78-8.52-2.06-86.61-2-87.4a9,9,0,0,1,1.89-5.35l.16-.23.25-.15c.06,0,2.36-1.41,5.4-3.39,4.83-3.13,11.54-7.78,14.25-11,3.5-4.19,4.79-9.9,5.94-14.94.88-3.9,1.64-7.26,3.32-9.22,1.91-2.22,4.55-3.62,7.63-5.25a45.45,45.45,0,0,0,11.11-7.56l.9-.91a17.89,17.89,0,0,0,2.35-3.2C120,373.1,121.64,367,122.59,362c.08-.36.14-.71.19-1.06.3-1.62.52-3.08.68-4.28.27-2,.38-3.23.38-3.28a1.51,1.51,0,0,1,1.62-1.37,1.5,1.5,0,0,1,1.37,1.62Z"/><path class="cls-15" d="M993,440c-.29,12.72-1.39,79.32,1.91,86.75,2.44,5.49,18.24,9.23,27.89,12.09a19.41,19.41,0,0,1,7.44,3.72H947.14a19.41,19.41,0,0,1,7.44-3.72c9.65-2.86,25.45-6.6,27.89-12.09,3.3-7.43,2.2-74,1.91-86.75a7.57,7.57,0,0,0-1.57-4.48s-15.38-9.18-20-14.76c-6.45-7.73-5.82-20.17-9.23-24.14-3.9-4.53-11.91-5.67-19.59-13.66-7.44-7.76-8.2-20.77-8.2-20.77h125.83s-.77,13-8.21,20.77c-7.67,8-15.69,9.13-19.57,13.66-3.42,4-2.79,16.41-9.25,24.14-4.65,5.58-20,14.76-20,14.76A7.57,7.57,0,0,0,993,440Z"/><circle class="cls-3" cx="923.57" cy="354.03" r="36.49"/><path class="cls-13" d="M920.33,350.54s-3.11-16.45-8.7-22.71c-2.61-2.93-6.78-1.59-9.57,1s-4.6,5.5-2.36,8.48C904.77,344,920.33,350.54,920.33,350.54Z"/><path class="cls-13" d="M923.75,349.27s9.43-13.84,9.91-22.21c.22-3.92-3.68-5.92-7.47-6.06s-7.16.63-7.67,4.33C917.36,333.65,923.75,349.27,923.75,349.27Z"/><path class="cls-13" d="M927.06,350.79s16.46-3.11,22.72-8.7c2.92-2.61,1.58-6.78-1-9.57s-5.51-4.61-8.48-2.36C933.59,335.23,927.06,350.79,927.06,350.79Z"/><path class="cls-13" d="M928.33,354.21s13.84,9.43,22.22,9.91c3.91.22,5.91-3.68,6.06-7.48s-.64-7.15-4.33-7.66C944,347.82,928.33,354.21,928.33,354.21Z"/><path class="cls-13" d="M926.82,357.52s3.11,16.46,8.7,22.72c2.61,2.92,6.78,1.58,9.57-1s4.6-5.51,2.36-8.49C942.38,364.05,926.82,357.52,926.82,357.52Z"/><path class="cls-13" d="M923.4,358.79S914,372.63,913.49,381c-.22,3.91,3.67,5.91,7.47,6.06s7.15-.64,7.67-4.33C929.79,374.41,923.4,358.79,923.4,358.79Z"/><path class="cls-13" d="M920.08,357.27s-16.45,3.12-22.71,8.71c-2.92,2.61-1.58,6.78,1,9.56s5.51,4.61,8.48,2.36C913.56,372.84,920.08,357.27,920.08,357.27Z"/><path class="cls-13" d="M918.82,353.86S905,344.42,896.6,344c-3.91-.22-5.91,3.67-6.06,7.47s.64,7.15,4.33,7.67C903.19,360.25,918.82,353.86,918.82,353.86Z"/><path class="cls-10" d="M1049.88,370.85c2.23-5.89,1.71-9.61,1.71-9.61s-9.13-.93-12.17-.93c-3.89,0-11.67.93-15.57.93s-11.82-1.86-15.76-1.86-11.39,1.86-15.19,1.86c-3.33,0-8.14-1.86-11.47-1.86-2.55,0-9.51,1.86-12.07,1.86-3,0-9-.93-12-.93-3.61,0-10.83.93-14.45.93-1.91,0-5.73-.93-7.64-.93-2.39,0-9.56.93-9.56.93s-.09,2.79,1.7,9.61Z"/><g class="cls-18"><path class="cls-15" d="M993,440c-.29,12.72-1.39,79.32,1.91,86.75,2.44,5.49,18.24,9.23,27.89,12.09a19.41,19.41,0,0,1,7.44,3.72H947.14a19.41,19.41,0,0,1,7.44-3.72c9.65-2.86,25.45-6.6,27.89-12.09,3.3-7.43,2.2-74,1.91-86.75a7.57,7.57,0,0,0-1.57-4.48s-15.38-9.18-20-14.76c-6.45-7.73-5.82-20.17-9.23-24.14-3.9-4.53-11.91-5.67-19.59-13.66-7.44-7.76-8.2-20.77-8.2-20.77h125.83s-.77,13-8.21,20.77c-7.67,8-15.69,9.13-19.57,13.66-3.42,4-2.79,16.41-9.25,24.14-4.65,5.58-20,14.76-20,14.76A7.57,7.57,0,0,0,993,440Z"/><path class="cls-10" d="M1049.88,370.85c2.23-5.89,1.71-9.61,1.71-9.61s-9.13-.93-12.17-.93c-3.89,0-11.67.93-15.57.93s-11.82-1.86-15.76-1.86-11.39,1.86-15.19,1.86c-3.33,0-8.14-1.86-11.47-1.86-2.55,0-9.51,1.86-12.07,1.86-3,0-9-.93-12-.93-3.61,0-10.83.93-14.45.93-1.91,0-5.73-.93-7.64-.93-2.39,0-9.56.93-9.56.93s-.09,2.79,1.7,9.61Z"/></g><path class="cls-7" d="M1005.77,427.62c-1.42.64-13.56,9.24-13.59,10.8-.28,12.17-1.33,80.95,1.83,88.06,2.33,5.25,17.45,8.84,26.69,11.57a18.67,18.67,0,0,1,7.12,3.56h-78.3a18.67,18.67,0,0,1,7.12-3.56c9.24-2.73,24.36-6.32,26.69-11.57,3.16-7.11,2.11-75.89,1.84-88.06,0-1.56-12.19-10.13-13.6-10.8,0,0,12.67,6.51,17.1,6.51C993.54,434.13,1005.77,427.62,1005.77,427.62Z"/><path class="cls-8" d="M1052.52,358.45s-1.7,16.73-9.14,24.49c-7.67,8-15.69,9.13-19.57,13.66-3.42,4-2.79,16.41-9.25,24.14-4.65,5.58-20,14.76-20,14.76A7.57,7.57,0,0,0,993,440c-.29,12.72-1.39,79.32,1.91,86.75,2.44,5.49,18.24,9.23,27.89,12.09a19.41,19.41,0,0,1,7.44,3.72H947.14a19.41,19.41,0,0,1,7.44-3.72c9.65-2.86,25.45-6.6,27.89-12.09,3.3-7.43,2.2-74,1.91-86.75a7.57,7.57,0,0,0-1.57-4.48s-15.38-9.18-20-14.76c-6.45-7.73-5.82-20.17-9.23-24.14-3.9-4.53-11.91-5.67-19.59-13.66-7.44-7.76-9.13-24.49-9.13-24.49"/><g id="LOGO"><path class="cls-19" d="M683.93,422.45l-64.62-80.58s12.39,3,22.84,3c9,0,16.53-3,22.19-3,4.58,0,10.64,3,18.1,3s15.1-3,20.89-3c7.64,0,18,3,23.88,3a93.54,93.54,0,0,0,21.34-3Z"/></g><circle class="cls-20" cx="711.68" cy="326.62" r="2.7"/><circle class="cls-20" cx="708.44" cy="297.46" r="3.78"/><circle class="cls-20" cx="721.94" cy="312.04" r="4.32"/></g></svg>
